<svg data-v-423bf9ae="" xmlns="http://www.w3.org/2000/svg" viewBox="0 0 316.5384922225105 60" class="font"><!----><!----><!----><g data-v-423bf9ae="" id="326e9e20-7dd0-4d82-a8ba-62d9cf3629e9" fill="white" transform="matrix(4.807692484037417,0,0,4.807692484037417,1.730768995524329,-22.50000047683715)"><path d="M6.22 5.04L6.22 5.04Q6.51 5.04 6.67 5.13L6.67 5.13L6.67 5.13Q6.83 5.22 6.83 5.39L6.83 5.39L6.83 5.39Q6.83 5.46 6.79 5.57L6.79 5.57L6.79 5.57Q6.75 5.67 6.67 5.75L6.67 5.75L6.67 5.75Q6.59 5.82 6.53 5.86L6.53 5.86L6.53 5.86Q6.47 5.89 6.44 5.92L6.44 5.92L6.44 5.92Q6.22 6.05 6.08 6.20L6.08 6.20L6.08 6.20Q5.94 6.36 5.84 6.68L5.84 6.68L4.14 12.71L4.14 12.71Q4.09 12.89 4.09 13.06L4.09 13.06L4.09 13.06Q4.09 13.23 4.14 13.34L4.14 13.34L4.14 13.34Q4.19 13.45 4.28 13.58L4.28 13.58L4.28 13.58Q4.41 13.76 4.41 13.87L4.41 13.87L4.41 13.87Q4.41 13.90 4.38 14.01L4.38 14.01L4.38 14.01Q4.33 14.21 4.13 14.29L4.13 14.29L4.13 14.29Q3.93 14.36 3.54 14.36L3.54 14.36L0.25 14.36L0.25 14.36Q-0.04 14.36-0.20 14.27L-0.20 14.27L-0.20 14.27Q-0.36 14.17-0.36 14L-0.36 14L-0.36 14Q-0.36 13.92-0.32 13.82L-0.32 13.82L-0.32 13.82Q-0.27 13.66-0.14 13.58L-0.14 13.58L-0.14 13.58Q-0.01 13.50 0.01 13.48L0.01 13.48L0.01 13.48Q0.24 13.34 0.38 13.20L0.38 13.20L0.38 13.20Q0.52 13.05 0.62 12.71L0.62 12.71L2.32 6.68L2.32 6.68Q2.38 6.50 2.38 6.33L2.38 6.33L2.38 6.33Q2.38 6.17 2.33 6.07L2.33 6.07L2.33 6.07Q2.28 5.96 2.20 5.82L2.20 5.82L2.20 5.82Q2.07 5.64 2.07 5.53L2.07 5.53L2.07 5.53Q2.07 5.49 2.10 5.38L2.10 5.38L2.10 5.38Q2.16 5.19 2.35 5.12L2.35 5.12L2.35 5.12Q2.53 5.04 2.93 5.04L2.93 5.04L6.22 5.04ZM19.82 9.67L18.97 12.43L18.97 12.43Q18.94 12.49 18.94 12.60L18.94 12.60L18.94 12.60Q18.94 12.70 18.99 12.75L18.99 12.75L18.99 12.75Q19.04 12.81 19.12 12.81L19.12 12.81L19.12 12.81Q19.29 12.81 19.41 12.66L19.41 12.66L19.41 12.66Q19.53 12.52 19.57 12.52L19.57 12.52L19.57 12.52Q19.64 12.52 19.68 12.61L19.68 12.61L19.68 12.61Q19.73 12.70 19.73 12.82L19.73 12.82L19.73 12.82Q19.74 13.23 19.46 13.62L19.46 13.62L19.46 13.62Q19.18 14 18.64 14.25L18.64 14.25L18.64 14.25Q18.10 14.49 17.35 14.49L17.35 14.49L17.35 14.49Q16.42 14.49 15.88 14.06L15.88 14.06L15.88 14.06Q15.33 13.64 15.32 12.92L15.32 12.92L15.32 12.92Q15.32 12.40 15.57 11.76L15.57 11.76L16.34 9.74L16.34 9.74Q16.41 9.56 16.41 9.45L16.41 9.45L16.41 9.45Q16.41 9.27 16.29 9.16L16.29 9.16L16.29 9.16Q16.17 9.06 16.00 9.06L16.00 9.06L16.00 9.06Q15.76 9.06 15.51 9.27L15.51 9.27L15.51 9.27Q15.26 9.48 15.06 9.93L15.06 9.93L14.29 12.43L14.29 12.43Q14.27 12.49 14.27 12.60L14.27 12.60L14.27 12.60Q14.27 12.70 14.32 12.75L14.32 12.75L14.32 12.75Q14.36 12.81 14.45 12.81L14.45 12.81L14.45 12.81Q14.62 12.81 14.73 12.66L14.73 12.66L14.73 12.66Q14.85 12.52 14.90 12.52L14.90 12.52L14.90 12.52Q14.97 12.52 15.01 12.61L15.01 12.61L15.01 12.61Q15.05 12.70 15.05 12.82L15.05 12.82L15.05 12.82Q15.06 13.23 14.78 13.62L14.78 13.62L14.78 13.62Q14.50 14 13.96 14.25L13.96 14.25L13.96 14.25Q13.43 14.49 12.67 14.49L12.67 14.49L12.67 14.49Q11.75 14.49 11.20 14.06L11.20 14.06L11.20 14.06Q10.65 13.64 10.64 12.92L10.64 12.92L10.64 12.92Q10.64 12.40 10.89 11.76L10.89 11.76L11.66 9.74L11.66 9.74Q11.73 9.56 11.73 9.45L11.73 9.45L11.73 9.45Q11.73 9.27 11.61 9.16L11.61 9.16L11.61 9.16Q11.49 9.06 11.33 9.06L11.33 9.06L11.33 9.06Q11.09 9.06 10.84 9.26L10.84 9.26L10.84 9.26Q10.58 9.46 10.42 9.91L10.42 9.91L9.49 12.91L9.49 12.91Q9.44 13.06 9.44 13.20L9.44 13.20L9.44 13.20Q9.44 13.37 9.51 13.48L9.51 13.48L9.51 13.48Q9.58 13.58 9.70 13.69L9.70 13.69L9.70 13.69Q9.80 13.78 9.84 13.85L9.84 13.85L9.84 13.85Q9.88 13.92 9.86 14.01L9.86 14.01L9.86 14.01Q9.80 14.20 9.59 14.28L9.59 14.28L9.59 14.28Q9.38 14.36 8.93 14.36L8.93 14.36L5.74 14.36L5.74 14.36Q5.38 14.36 5.21 14.25L5.21 14.25L5.21 14.25Q5.05 14.13 5.10 13.93L5.10 13.93L5.10 13.93Q5.15 13.76 5.39 13.64L5.39 13.64L5.39 13.64Q5.60 13.52 5.74 13.37L5.74 13.37L5.74 13.37Q5.88 13.22 5.98 12.88L5.98 12.88L7.22 8.83L7.22 8.83Q7.25 8.76 7.25 8.64L7.25 8.64L7.25 8.64Q7.25 8.48 7.19 8.40L7.19 8.40L7.19 8.40Q7.13 8.32 6.99 8.19L6.99 8.19L6.99 8.19Q6.85 8.08 6.79 7.99L6.79 7.99L6.79 7.99Q6.73 7.91 6.78 7.77L6.78 7.77L6.78 7.77Q6.86 7.45 7.66 7.20L7.66 7.20L7.66 7.20Q8.46 6.96 9.32 6.96L9.32 6.96L9.32 6.96Q10.01 6.96 10.41 7.34L10.41 7.34L10.41 7.34Q10.81 7.71 10.79 8.37L10.79 8.37L10.79 8.37Q11.37 7.57 12.00 7.27L12.00 7.27L12.00 7.27Q12.64 6.96 13.38 6.96L13.38 6.96L13.38 6.96Q14.20 6.96 14.71 7.43L14.71 7.43L14.71 7.43Q15.22 7.90 15.27 8.65L15.27 8.65L15.27 8.65Q15.88 7.70 16.56 7.33L16.56 7.33L16.56 7.33Q17.25 6.96 18.06 6.96L18.06 6.96L18.06 6.96Q18.91 6.96 19.44 7.48L19.44 7.48L19.44 7.48Q19.96 7.99 19.96 8.82L19.96 8.82L19.96 8.82Q19.96 9.25 19.82 9.67L19.82 9.67ZM25.33 6.96L25.33 6.96Q26.94 6.96 27.90 7.55L27.90 7.55L27.90 7.55Q28.87 8.15 28.87 9.37L28.87 9.37L28.87 9.37Q28.87 9.83 28.70 10.42L28.70 10.42L28.13 12.35L28.13 12.35Q28.11 12.40 28.11 12.49L28.11 12.49L28.11 12.49Q28.11 12.71 28.29 12.71L28.29 12.71L28.29 12.71Q28.46 12.71 28.58 12.57L28.58 12.57L28.58 12.57Q28.70 12.42 28.74 12.42L28.74 12.42L28.74 12.42Q28.81 12.42 28.86 12.52L28.86 12.52L28.86 12.52Q28.91 12.61 28.91 12.74L28.91 12.74L28.91 12.74Q28.92 13.12 28.62 13.51L28.62 13.51L28.62 13.51Q28.32 13.90 27.82 14.15L27.82 14.15L27.82 14.15Q27.31 14.41 26.71 14.41L26.71 14.41L26.71 14.41Q25.98 14.41 25.47 14.14L25.47 14.14L25.47 14.14Q24.95 13.87 24.75 13.36L24.75 13.36L24.75 13.36Q24.33 13.86 23.76 14.13L23.76 14.13L23.76 14.13Q23.18 14.41 22.53 14.41L22.53 14.41L22.53 14.41Q21.78 14.41 21.28 14.12L21.28 14.12L21.28 14.12Q20.78 13.83 20.53 13.38L20.53 13.38L20.53 13.38Q20.29 12.92 20.29 12.42L20.29 12.42L20.29 12.42Q20.29 12.19 20.33 11.98L20.33 11.98L20.33 11.98Q20.55 11.02 21.30 10.53L21.30 10.53L21.30 10.53Q22.05 10.04 23.09 10.04L23.09 10.04L23.09 10.04Q24.25 10.04 25.37 10.40L25.37 10.40L25.72 9.48L25.72 9.48Q25.90 8.89 25.90 8.57L25.90 8.57L25.90 8.57Q25.89 8.23 25.68 8.06L25.68 8.06L25.68 8.06Q25.47 7.90 25.03 7.90L25.03 7.90L25.03 7.90Q25.12 8.12 25.12 8.36L25.12 8.36L25.12 8.36Q25.12 8.88 24.72 9.25L24.72 9.25L24.72 9.25Q24.33 9.63 23.60 9.63L23.60 9.63L23.60 9.63Q22.92 9.63 22.53 9.33L22.53 9.33L22.53 9.33Q22.15 9.03 22.15 8.58L22.15 8.58L22.15 8.58Q22.15 7.88 22.93 7.42L22.93 7.42L22.93 7.42Q23.72 6.96 25.33 6.96L25.33 6.96ZM24.54 11.20L24.54 11.20Q24.15 11.20 23.91 11.50L23.91 11.50L23.91 11.50Q23.66 11.80 23.66 12.15L23.66 12.15L23.66 12.15Q23.66 12.38 23.77 12.52L23.77 12.52L23.77 12.52Q23.87 12.66 24.07 12.66L24.07 12.66L24.07 12.66Q24.25 12.66 24.46 12.51L24.46 12.51L24.46 12.51Q24.68 12.36 24.78 12.07L24.78 12.07L25.07 11.24L25.07 11.24Q24.84 11.20 24.54 11.20L24.54 11.20ZM37.97 4.68L37.97 4.68Q38.42 4.68 38.84 4.87L38.84 4.87L38.84 4.87Q39.27 5.05 39.54 5.38L39.54 5.38L39.54 5.38Q39.82 5.71 39.82 6.09L39.82 6.09L39.82 6.09Q39.82 6.92 38.70 6.92L38.70 6.92L38.70 6.92Q38.37 6.92 38.20 6.87L38.20 6.87L38.20 6.87Q38.02 6.82 37.79 6.71L37.79 6.71L37.79 6.71Q37.74 6.80 37.74 6.99L37.74 6.99L37.74 6.99Q37.74 7.21 37.82 7.52L37.82 7.52L37.82 7.52Q37.90 7.83 38.01 8.09L38.01 8.09L38.01 8.09Q38.30 8.53 38.30 9.13L38.30 9.13L38.30 9.13Q38.30 9.39 38.23 9.77L38.23 9.77L38.23 9.77Q38.07 10.50 37.50 11.10L37.50 11.10L37.50 11.10Q36.93 11.70 36.04 12.05L36.04 12.05L36.04 12.05Q35.15 12.39 34.09 12.39L34.09 12.39L34.09 12.39Q33.28 12.39 32.56 12.28L32.56 12.28L32.56 12.28Q32.35 12.46 32.35 12.73L32.35 12.73L32.35 12.73Q32.35 12.91 32.52 13.03L32.52 13.03L32.52 13.03Q32.69 13.15 33.08 13.15L33.08 13.15L35.18 13.15L35.18 13.15Q36.26 13.15 36.86 13.52L36.86 13.52L36.86 13.52Q37.46 13.89 37.46 14.57L37.46 14.57L37.46 14.57Q37.46 14.83 37.38 15.09L37.38 15.09L37.38 15.09Q37.21 15.64 36.62 16.11L36.62 16.11L36.62 16.11Q36.02 16.58 34.94 16.87L34.94 16.87L34.94 16.87Q33.87 17.16 32.33 17.16L32.33 17.16L32.33 17.16Q30.95 17.16 30.00 16.93L30.00 16.93L30.00 16.93Q29.05 16.69 28.58 16.28L28.58 16.28L28.58 16.28Q28.11 15.86 28.11 15.36L28.11 15.36L28.11 15.36Q28.11 15.25 28.17 15.02L28.17 15.02L28.17 15.02Q28.29 14.62 28.74 14.36L28.74 14.36L28.74 14.36Q29.18 14.10 30.18 14.01L30.18 14.01L30.18 14.01Q29.85 13.69 29.85 13.24L29.85 13.24L29.85 13.24Q29.85 13.09 29.89 12.92L29.89 12.92L29.89 12.92Q30.11 12.19 31.21 11.84L31.21 11.84L31.21 11.84Q30.16 11.27 30.16 10.16L30.16 10.16L30.16 10.16Q30.16 9.86 30.24 9.52L30.24 9.52L30.24 9.52Q30.41 8.79 30.98 8.20L30.98 8.20L30.98 8.20Q31.56 7.60 32.45 7.25L32.45 7.25L32.45 7.25Q33.35 6.90 34.41 6.90L34.41 6.90L34.41 6.90Q36.08 6.90 37.03 7.34L37.03 7.34L37.03 7.34Q36.82 7.01 36.70 6.64L36.70 6.64L36.70 6.64Q36.58 6.27 36.58 5.96L36.58 5.96L36.58 5.96Q36.58 5.43 36.93 5.05L36.93 5.05L36.93 5.05Q37.27 4.68 37.97 4.68L37.97 4.68ZM34.93 9.65L34.93 9.65Q35.15 8.93 35.15 8.55L35.15 8.55L35.15 8.55Q35.15 8.08 34.75 8.08L34.75 8.08L34.75 8.08Q34.40 8.08 34.14 8.42L34.14 8.42L34.14 8.42Q33.88 8.76 33.61 9.65L33.61 9.65L33.61 9.65Q33.39 10.37 33.39 10.75L33.39 10.75L33.39 10.75Q33.39 11.21 33.78 11.21L33.78 11.21L33.78 11.21Q34.13 11.21 34.40 10.86L34.40 10.86L34.40 10.86Q34.66 10.51 34.93 9.65L34.93 9.65ZM33.49 14.56L32.14 14.56L32.14 14.56Q31.75 14.56 31.43 14.52L31.43 14.52L31.43 14.52Q31.26 14.73 31.26 15.08L31.26 15.08L31.26 15.08Q31.28 15.43 31.55 15.58L31.55 15.58L31.55 15.58Q31.82 15.74 32.40 15.74L32.40 15.74L32.40 15.74Q33.10 15.74 33.54 15.53L33.54 15.53L33.54 15.53Q33.98 15.32 33.98 14.92L33.98 14.92L33.98 14.92Q33.98 14.76 33.85 14.66L33.85 14.66L33.85 14.66Q33.73 14.56 33.49 14.56L33.49 14.56ZM43.12 6.89L43.12 6.89Q44.90 6.89 45.70 7.46L45.70 7.46L45.70 7.46Q46.49 8.02 46.49 8.90L46.49 8.90L46.49 8.90Q46.49 9.17 46.44 9.39L46.44 9.39L46.44 9.39Q46.23 10.32 45.27 10.72L45.27 10.72L45.27 10.72Q44.31 11.12 43.01 11.12L43.01 11.12L43.01 11.12Q42.35 11.12 41.78 11.03L41.78 11.03L41.78 11.03Q41.76 11.76 42.17 12.05L42.17 12.05L42.17 12.05Q42.57 12.35 43.30 12.35L43.30 12.35L43.30 12.35Q43.64 12.35 43.95 12.27L43.95 12.27L43.95 12.27Q44.25 12.19 44.73 12.04L44.73 12.04L44.73 12.04Q45.12 11.90 45.26 11.90L45.26 11.90L45.26 11.90Q45.42 11.90 45.42 12.08L45.42 12.08L45.42 12.08Q45.43 12.57 45.05 13.11L45.05 13.11L45.05 13.11Q44.67 13.65 43.93 14.03L43.93 14.03L43.93 14.03Q43.19 14.41 42.14 14.41L42.14 14.41L42.14 14.41Q40.59 14.41 39.59 13.62L39.59 13.62L39.59 13.62Q38.60 12.84 38.60 11.34L38.60 11.34L38.60 11.34Q38.60 10.92 38.71 10.36L38.71 10.36L38.71 10.36Q39.06 8.64 40.24 7.76L40.24 7.76L40.24 7.76Q41.43 6.89 43.12 6.89L43.12 6.89ZM41.87 10.19L41.87 10.19Q41.93 10.21 42.03 10.21L42.03 10.21L42.03 10.21Q42.62 10.21 42.92 9.66L42.92 9.66L42.92 9.66Q43.23 9.11 43.22 8.44L43.22 8.44L43.22 8.44Q43.20 8.05 42.99 8.05L42.99 8.05L42.99 8.05Q42.84 8.05 42.63 8.30L42.63 8.30L42.63 8.30Q42.42 8.54 42.22 9.03L42.22 9.03L42.22 9.03Q42.01 9.52 41.87 10.19L41.87 10.19ZM58.94 7.95L57.57 12.71L57.57 12.71Q57.51 12.89 57.51 13.08L57.51 13.08L57.51 13.08Q57.51 13.23 57.55 13.34L57.55 13.34L57.55 13.34Q57.60 13.44 57.64 13.50L57.64 13.50L57.64 13.50Q57.69 13.57 57.71 13.59L57.71 13.59L57.71 13.59Q57.85 13.73 57.85 13.87L57.85 13.87L57.85 13.87Q57.85 13.90 57.82 14.01L57.82 14.01L57.82 14.01Q57.76 14.21 57.57 14.29L57.57 14.29L57.57 14.29Q57.39 14.36 56.99 14.36L56.99 14.36L53.68 14.36L53.68 14.36Q53.38 14.36 53.22 14.27L53.22 14.27L53.22 14.27Q53.06 14.17 53.06 14L53.06 14L53.06 14Q53.06 13.92 53.10 13.82L53.10 13.82L53.10 13.82Q53.14 13.71 53.22 13.64L53.22 13.64L53.22 13.64Q53.30 13.58 53.44 13.50L53.44 13.50L53.44 13.50Q53.66 13.37 53.80 13.22L53.80 13.22L53.80 13.22Q53.94 13.06 54.04 12.71L54.04 12.71L54.40 11.51L52.22 11.51L51.84 12.31L51.84 12.31Q51.60 12.82 51.60 13.12L51.60 13.12L51.60 13.12Q51.60 13.29 51.66 13.39L51.66 13.39L51.66 13.39Q51.72 13.50 51.83 13.61L51.83 13.61L51.83 13.61Q51.93 13.72 51.96 13.80L51.96 13.80L51.96 13.80Q52.00 13.87 51.97 14L51.97 14L51.97 14Q51.91 14.21 51.74 14.29L51.74 14.29L51.74 14.29Q51.56 14.36 51.18 14.36L51.18 14.36L49.10 14.36L49.10 14.36Q48.78 14.36 48.61 14.25L48.61 14.25L48.61 14.25Q48.44 14.13 48.44 13.93L48.44 13.93L48.44 13.93Q48.44 13.71 48.60 13.57L48.60 13.57L48.60 13.57Q48.76 13.44 49.08 13.29L49.08 13.29L49.08 13.29Q49.50 13.08 49.76 12.87L49.76 12.87L49.76 12.87Q50.01 12.67 50.19 12.31L50.19 12.31L52.68 7.14L52.68 7.14Q53.26 5.94 54.03 5.40L54.03 5.40L54.03 5.40Q54.81 4.86 56.08 4.86L56.08 4.86L56.08 4.86Q57.51 4.86 58.30 5.44L58.30 5.44L58.30 5.44Q59.08 6.02 59.08 7.06L59.08 7.06L59.08 7.06Q59.08 7.49 58.94 7.95L58.94 7.95ZM52.86 10.11L54.82 10.11L55.57 7.64L55.57 7.64Q55.62 7.48 55.62 7.29L55.62 7.29L55.62 7.29Q55.62 7.03 55.47 6.90L55.47 6.90L55.47 6.90Q55.33 6.76 55.06 6.76L55.06 6.76L55.06 6.76Q54.73 6.76 54.49 6.96L54.49 6.96L54.49 6.96Q54.25 7.15 54.01 7.66L54.01 7.66L52.86 10.11ZM64.86 5.04L64.86 5.04Q65.16 5.04 65.32 5.13L65.32 5.13L65.32 5.13Q65.48 5.22 65.48 5.39L65.48 5.39L65.48 5.39Q65.48 5.46 65.44 5.57L65.44 5.57L65.44 5.57Q65.39 5.67 65.32 5.75L65.32 5.75L65.32 5.75Q65.24 5.82 65.18 5.86L65.18 5.86L65.18 5.86Q65.11 5.89 65.09 5.92L65.09 5.92L65.09 5.92Q64.86 6.05 64.72 6.20L64.72 6.20L64.72 6.20Q64.58 6.36 64.48 6.68L64.48 6.68L62.79 12.71L62.79 12.71Q62.73 12.89 62.73 13.06L62.73 13.06L62.73 13.06Q62.73 13.23 62.78 13.34L62.78 13.34L62.78 13.34Q62.83 13.45 62.93 13.58L62.93 13.58L62.93 13.58Q63.06 13.76 63.06 13.87L63.06 13.87L63.06 13.87Q63.06 13.90 63.03 14.01L63.03 14.01L63.03 14.01Q62.97 14.21 62.78 14.29L62.78 14.29L62.78 14.29Q62.58 14.36 62.19 14.36L62.19 14.36L58.90 14.36L58.90 14.36Q58.60 14.36 58.44 14.27L58.44 14.27L58.44 14.27Q58.28 14.17 58.28 14L58.28 14L58.28 14Q58.28 13.92 58.32 13.82L58.32 13.82L58.32 13.82Q58.38 13.66 58.51 13.58L58.51 13.58L58.51 13.58Q58.63 13.50 58.66 13.48L58.66 13.48L58.66 13.48Q58.88 13.34 59.02 13.20L59.02 13.20L59.02 13.20Q59.16 13.05 59.26 12.71L59.26 12.71L60.97 6.68L60.97 6.68Q61.03 6.50 61.03 6.33L61.03 6.33L61.03 6.33Q61.03 6.17 60.98 6.07L60.98 6.07L60.98 6.07Q60.93 5.96 60.84 5.82L60.84 5.82L60.84 5.82Q60.72 5.64 60.72 5.53L60.72 5.53L60.72 5.53Q60.72 5.49 60.75 5.38L60.75 5.38L60.75 5.38Q60.80 5.19 60.99 5.12L60.99 5.12L60.99 5.12Q61.18 5.04 61.57 5.04L61.57 5.04L64.86 5.04Z"></path></g><!----><!----></svg>