<svg data-v-423bf9ae="" xmlns="http://www.w3.org/2000/svg" viewBox="0 0 880 90" class="iconLeft"><!----><!----><!----><g data-v-423bf9ae="" id="6febf323-f251-4981-a77b-7db8a4239d86" fill="#2C1B19" transform="matrix(5.226481044642261,0,0,5.226481044642261,227.10802033966422,0.3658521321268111)"><path d="M4.65 10.68L3.08 10.68L3.08 14L1.51 14L1.51 4.20L4.65 4.20L4.65 4.20Q5.47 4.20 6.15 4.39L6.15 4.39L6.15 4.39Q6.82 4.58 7.33 5.26L7.33 5.26L7.33 5.26Q7.84 5.94 7.84 7.29L7.84 7.29L7.84 7.29Q7.84 9.35 6.90 10.02L6.90 10.02L6.90 10.02Q5.95 10.68 4.65 10.68L4.65 10.68ZM3.08 5.53L3.08 9.35L4.65 9.35L4.65 9.35Q5.18 9.35 5.52 9.22L5.52 9.22L5.52 9.22Q5.85 9.09 6.05 8.64L6.05 8.64L6.05 8.64Q6.26 8.20 6.26 7.34L6.26 7.34L6.26 7.34Q6.26 6.54 6.05 6.15L6.05 6.15L6.05 6.15Q5.85 5.75 5.52 5.64L5.52 5.64L5.52 5.64Q5.19 5.53 4.65 5.53L4.65 5.53L3.08 5.53ZM16.42 13.31L15.41 14.28L14.53 13.41L14.53 13.41Q13.61 14.15 12.31 14.15L12.31 14.15L12.31 14.15Q10.81 14.15 10.09 13.59L10.09 13.59L10.09 13.59Q9.38 13.03 9.38 11.86L9.38 11.86L9.38 11.86Q9.38 10.68 10.16 10.13L10.16 10.13L10.16 10.13Q10.93 9.58 12.59 9.58L12.59 9.58L14.01 9.58L14.01 9.21L14.01 9.21Q14.01 8.65 13.68 8.41L13.68 8.41L13.68 8.41Q13.34 8.16 12.59 8.16L12.59 8.16L12.59 8.16Q11.91 8.16 11.49 8.31L11.49 8.31L11.49 8.31Q11.06 8.46 10.79 8.76L10.79 8.76L9.79 7.78L9.79 7.78Q10.22 7.35 10.98 7.09L10.98 7.09L10.98 7.09Q11.73 6.83 12.70 6.83L12.70 6.83L12.70 6.83Q14.04 6.83 14.81 7.36L14.81 7.36L14.81 7.36Q15.58 7.88 15.58 8.85L15.58 8.85L15.58 12.47L16.42 13.31ZM10.93 11.86L10.93 11.86Q10.93 12.39 11.28 12.61L11.28 12.61L11.28 12.61Q11.63 12.84 12.54 12.84L12.54 12.84L12.54 12.84Q12.98 12.84 13.37 12.68L13.37 12.68L13.37 12.68Q13.76 12.53 14.01 12.29L14.01 12.29L14.01 10.82L13.06 10.82L13.06 10.82Q12.14 10.82 11.69 10.92L11.69 10.92L11.69 10.92Q11.24 11.02 11.09 11.23L11.09 11.23L11.09 11.23Q10.93 11.44 10.93 11.86L10.93 11.86ZM21.03 14.15L21.03 14.15Q20.02 14.15 19.12 13.83L19.12 13.83L19.12 13.83Q18.23 13.51 17.79 12.87L17.79 12.87L19.08 12.03L19.08 12.03Q19.29 12.39 19.88 12.61L19.88 12.61L19.88 12.61Q20.47 12.84 21.08 12.84L21.08 12.84L21.08 12.84Q21.73 12.84 22.17 12.64L22.17 12.64L22.17 12.64Q22.61 12.45 22.61 12.04L22.61 12.04L22.61 12.04Q22.61 11.75 22.34 11.55L22.34 11.55L22.34 11.55Q22.08 11.35 21.79 11.27L21.79 11.27L21.79 11.27Q21.50 11.19 20.97 11.05L20.97 11.05L20.97 11.05Q19.92 10.81 19.05 10.29L19.05 10.29L19.05 10.29Q18.19 9.77 18.19 8.76L18.19 8.76L18.19 8.76Q18.19 8.12 18.63 7.69L18.63 7.69L18.63 7.69Q19.08 7.25 19.76 7.04L19.76 7.04L19.76 7.04Q20.44 6.83 21.15 6.83L21.15 6.83L21.15 6.83Q22.01 6.83 22.79 7.15L22.79 7.15L22.79 7.15Q23.56 7.46 23.98 8.12L23.98 8.12L22.78 8.90L22.78 8.90Q22.54 8.53 22.06 8.33L22.06 8.33L22.06 8.33Q21.59 8.13 21.13 8.13L21.13 8.13L21.13 8.13Q20.59 8.13 20.18 8.32L20.18 8.32L20.18 8.32Q19.77 8.50 19.77 8.85L19.77 8.85L19.77 8.85Q19.77 9.17 20.15 9.35L20.15 9.35L20.15 9.35Q20.54 9.53 21.15 9.70L21.15 9.70L21.46 9.79L21.46 9.79Q22.19 9.98 22.74 10.20L22.74 10.20L22.74 10.20Q23.30 10.42 23.75 10.86L23.75 10.86L23.75 10.86Q24.21 11.31 24.21 12.00L24.21 12.00L24.21 12.00Q24.21 12.71 23.75 13.20L23.75 13.20L23.75 13.20Q23.30 13.69 22.58 13.92L22.58 13.92L22.58 13.92Q21.85 14.15 21.03 14.15L21.03 14.15ZM29.43 14.15L29.43 14.15Q28.42 14.15 27.52 13.83L27.52 13.83L27.52 13.83Q26.63 13.51 26.19 12.87L26.19 12.87L27.48 12.03L27.48 12.03Q27.69 12.39 28.28 12.61L28.28 12.61L28.28 12.61Q28.87 12.84 29.48 12.84L29.48 12.84L29.48 12.84Q30.13 12.84 30.57 12.64L30.57 12.64L30.57 12.64Q31.01 12.45 31.01 12.04L31.01 12.04L31.01 12.04Q31.01 11.75 30.74 11.55L30.74 11.55L30.74 11.55Q30.48 11.35 30.19 11.27L30.19 11.27L30.19 11.27Q29.90 11.19 29.37 11.05L29.37 11.05L29.37 11.05Q28.32 10.81 27.45 10.29L27.45 10.29L27.45 10.29Q26.59 9.77 26.59 8.76L26.59 8.76L26.59 8.76Q26.59 8.12 27.03 7.69L27.03 7.69L27.03 7.69Q27.48 7.25 28.16 7.04L28.16 7.04L28.16 7.04Q28.84 6.83 29.55 6.83L29.55 6.83L29.55 6.83Q30.41 6.83 31.19 7.15L31.19 7.15L31.19 7.15Q31.96 7.46 32.38 8.12L32.38 8.12L31.18 8.90L31.18 8.90Q30.94 8.53 30.46 8.33L30.46 8.33L30.46 8.33Q29.99 8.13 29.53 8.13L29.53 8.13L29.53 8.13Q28.99 8.13 28.58 8.32L28.58 8.32L28.58 8.32Q28.17 8.50 28.17 8.85L28.17 8.85L28.17 8.85Q28.17 9.17 28.55 9.35L28.55 9.35L28.55 9.35Q28.94 9.53 29.55 9.70L29.55 9.70L29.86 9.79L29.86 9.79Q30.59 9.98 31.14 10.20L31.14 10.20L31.14 10.20Q31.70 10.42 32.15 10.86L32.15 10.86L32.15 10.86Q32.61 11.31 32.61 12.00L32.61 12.00L32.61 12.00Q32.61 12.71 32.15 13.20L32.15 13.20L32.15 13.20Q31.70 13.69 30.98 13.92L30.98 13.92L30.98 13.92Q30.25 14.15 29.43 14.15L29.43 14.15ZM40.01 7L41.52 7L40.59 14L38.81 14L37.79 9.74L36.75 14L34.96 14L34.03 7L35.53 7L36.06 12.07L37.11 7L38.44 7L39.49 12.05L40.01 7ZM46.24 14.15L46.24 14.15Q44.83 14.15 43.89 13.27L43.89 13.27L43.89 13.27Q42.95 12.38 42.95 10.49L42.95 10.49L42.95 10.49Q42.95 9.21 43.41 8.39L43.41 8.39L43.41 8.39Q43.86 7.57 44.60 7.20L44.60 7.20L44.60 7.20Q45.35 6.83 46.24 6.83L46.24 6.83L46.24 6.83Q47.14 6.83 47.87 7.20L47.87 7.20L47.87 7.20Q48.61 7.57 49.06 8.39L49.06 8.39L49.06 8.39Q49.52 9.21 49.52 10.49L49.52 10.49L49.52 10.49Q49.52 11.77 49.06 12.59L49.06 12.59L49.06 12.59Q48.61 13.41 47.87 13.78L47.87 13.78L47.87 13.78Q47.14 14.15 46.24 14.15L46.24 14.15ZM46.24 12.81L46.24 12.81Q46.90 12.81 47.38 12.27L47.38 12.27L47.38 12.27Q47.87 11.73 47.87 10.49L47.87 10.49L47.87 10.49Q47.87 9.25 47.38 8.71L47.38 8.71L47.38 8.71Q46.90 8.18 46.24 8.18L46.24 8.18L46.24 8.18Q45.57 8.18 45.09 8.71L45.09 8.71L45.09 8.71Q44.60 9.24 44.60 10.49L44.60 10.49L44.60 10.49Q44.60 11.73 45.09 12.27L45.09 12.27L45.09 12.27Q45.57 12.81 46.24 12.81L46.24 12.81ZM56.97 8.22L56.97 8.22Q56.29 8.22 55.82 8.53L55.82 8.53L55.82 8.53Q55.34 8.83 55.13 9.23L55.13 9.23L55.13 12.67L57.34 12.67L57.34 14L51.84 14L51.84 12.67L53.55 12.67L53.55 8.33L51.84 8.33L51.84 7L54.71 7L54.98 7.85L54.98 7.85Q55.36 7.36 55.93 7.10L55.93 7.10L55.93 7.10Q56.50 6.83 57.25 6.83L57.25 6.83L57.25 6.83Q57.92 6.83 58.45 7.10L58.45 7.10L57.99 8.44L57.99 8.44Q57.92 8.37 57.64 8.29L57.64 8.29L57.64 8.29Q57.37 8.22 56.97 8.22L56.97 8.22ZM64.33 2.80L65.90 2.80L65.90 14L64.67 14L64.40 13.20L64.40 13.20Q63.66 14.15 62.47 14.15L62.47 14.15L62.47 14.15Q61.05 14.15 60.28 13.25L60.28 13.25L60.28 13.25Q59.50 12.35 59.50 10.49L59.50 10.49L59.50 10.49Q59.50 8.61 60.21 7.73L60.21 7.73L60.21 7.73Q60.93 6.85 62.33 6.85L62.33 6.85L62.33 6.85Q62.94 6.85 63.45 7.08L63.45 7.08L63.45 7.08Q63.97 7.31 64.33 7.71L64.33 7.71L64.33 2.80ZM62.78 12.81L62.78 12.81Q63.35 12.81 63.76 12.47L63.76 12.47L63.76 12.47Q64.16 12.14 64.33 11.65L64.33 11.65L64.33 9.42L64.33 9.42Q64.11 8.92 63.68 8.55L63.68 8.55L63.68 8.55Q63.25 8.19 62.64 8.19L62.64 8.19L62.64 8.19Q61.75 8.19 61.41 8.71L61.41 8.71L61.41 8.71Q61.07 9.24 61.07 10.49L61.07 10.49L61.07 10.49Q61.07 11.70 61.47 12.26L61.47 12.26L61.47 12.26Q61.88 12.81 62.78 12.81L62.78 12.81ZM81.52 8.82L81.52 8.82Q81.52 8.76 82.01 8.97L82.01 8.97L82.01 8.97Q82.50 9.17 82.89 9.70L82.89 9.70L82.89 9.70Q83.29 10.23 83.29 11.20L83.29 11.20L83.29 11.20Q83.29 12.60 82.62 13.30L82.62 13.30L82.62 13.30Q81.96 14 80.70 14L80.70 14L76.79 14L76.79 4.20L79.98 4.20L79.98 4.20Q80.75 4.20 81.35 4.35L81.35 4.35L81.35 4.35Q81.94 4.49 82.37 5.03L82.37 5.03L82.37 5.03Q82.80 5.56 82.80 6.59L82.80 6.59L82.80 6.59Q82.80 7.49 82.52 7.98L82.52 7.98L82.52 7.98Q82.24 8.47 81.88 8.67L81.88 8.67L81.88 8.67Q81.52 8.88 81.52 8.82L81.52 8.82ZM78.36 5.53L78.36 8.29L80.01 8.29L80.01 8.29Q80.63 8.29 80.89 7.93L80.89 7.93L80.89 7.93Q81.14 7.57 81.14 6.79L81.14 6.79L81.14 6.79Q81.14 6.27 81.03 6.01L81.03 6.01L81.03 6.01Q80.92 5.74 80.67 5.63L80.67 5.63L80.67 5.63Q80.42 5.53 79.95 5.53L79.95 5.53L78.36 5.53ZM80.33 12.67L80.33 12.67Q80.91 12.67 81.20 12.51L81.20 12.51L81.20 12.51Q81.49 12.35 81.60 12.02L81.60 12.02L81.60 12.02Q81.70 11.69 81.70 11.14L81.70 11.14L81.70 11.14Q81.70 10.29 81.35 9.95L81.35 9.95L81.35 9.95Q80.99 9.60 80.33 9.60L80.33 9.60L78.36 9.60L78.36 12.67L80.33 12.67ZM90.57 8.22L90.57 8.22Q89.89 8.22 89.42 8.53L89.42 8.53L89.42 8.53Q88.94 8.83 88.73 9.23L88.73 9.23L88.73 12.67L90.94 12.67L90.94 14L85.44 14L85.44 12.67L87.15 12.67L87.15 8.33L85.44 8.33L85.44 7L88.31 7L88.58 7.85L88.58 7.85Q88.96 7.36 89.53 7.10L89.53 7.10L89.53 7.10Q90.10 6.83 90.85 6.83L90.85 6.83L90.85 6.83Q91.52 6.83 92.05 7.10L92.05 7.10L91.59 8.44L91.59 8.44Q91.52 8.37 91.25 8.29L91.25 8.29L91.25 8.29Q90.97 8.22 90.57 8.22L90.57 8.22ZM96.98 6.83L96.98 6.83Q98.48 6.83 99.27 7.82L99.27 7.82L99.27 7.82Q100.07 8.81 100.07 10.51L100.07 10.51L100.07 10.51Q100.07 10.81 100.06 10.95L100.06 10.95L95.24 10.95L95.24 10.95Q95.31 11.96 95.75 12.38L95.75 12.38L95.75 12.38Q96.19 12.81 96.95 12.81L96.95 12.81L96.95 12.81Q98.00 12.81 98.53 11.94L98.53 11.94L99.86 12.67L99.86 12.67Q99.40 13.41 98.62 13.78L98.62 13.78L98.62 13.78Q97.83 14.15 96.94 14.15L96.94 14.15L96.94 14.15Q96.01 14.15 95.26 13.76L95.26 13.76L95.26 13.76Q94.51 13.37 94.07 12.54L94.07 12.54L94.07 12.54Q93.63 11.72 93.63 10.49L93.63 10.49L93.63 10.49Q93.63 9.24 94.08 8.42L94.08 8.42L94.08 8.42Q94.53 7.60 95.28 7.22L95.28 7.22L95.28 7.22Q96.04 6.83 96.98 6.83L96.98 6.83ZM95.28 9.74L98.48 9.74L98.48 9.74Q98.41 8.96 98.04 8.56L98.04 8.56L98.04 8.56Q97.66 8.16 96.95 8.16L96.95 8.16L96.95 8.16Q96.28 8.16 95.84 8.53L95.84 8.53L95.84 8.53Q95.41 8.89 95.28 9.74L95.28 9.74ZM108.82 13.31L107.81 14.28L106.93 13.41L106.93 13.41Q106.01 14.15 104.71 14.15L104.71 14.15L104.71 14.15Q103.21 14.15 102.49 13.59L102.49 13.59L102.49 13.59Q101.78 13.03 101.78 11.86L101.78 11.86L101.78 11.86Q101.78 10.68 102.56 10.13L102.56 10.13L102.56 10.13Q103.33 9.58 104.99 9.58L104.99 9.58L106.41 9.58L106.41 9.21L106.41 9.21Q106.41 8.65 106.08 8.41L106.08 8.41L106.08 8.41Q105.74 8.16 104.99 8.16L104.99 8.16L104.99 8.16Q104.31 8.16 103.89 8.31L103.89 8.31L103.89 8.31Q103.46 8.46 103.19 8.76L103.19 8.76L102.19 7.78L102.19 7.78Q102.62 7.35 103.38 7.09L103.38 7.09L103.38 7.09Q104.13 6.83 105.10 6.83L105.10 6.83L105.10 6.83Q106.44 6.83 107.21 7.36L107.21 7.36L107.21 7.36Q107.98 7.88 107.98 8.85L107.98 8.85L107.98 12.47L108.82 13.31ZM103.33 11.86L103.33 11.86Q103.33 12.39 103.68 12.61L103.68 12.61L103.68 12.61Q104.03 12.84 104.94 12.84L104.94 12.84L104.94 12.84Q105.38 12.84 105.77 12.68L105.77 12.68L105.77 12.68Q106.16 12.53 106.41 12.29L106.41 12.29L106.41 10.82L105.46 10.82L105.46 10.82Q104.54 10.82 104.09 10.92L104.09 10.92L104.09 10.92Q103.64 11.02 103.49 11.23L103.49 11.23L103.49 11.23Q103.33 11.44 103.33 11.86L103.33 11.86ZM116.72 12.57L116.72 12.57Q115.79 14.15 113.92 14.15L113.92 14.15L113.92 14.15Q112.43 14.15 111.49 13.27L111.49 13.27L111.49 13.27Q110.54 12.38 110.54 10.49L110.54 10.49L110.54 10.49Q110.54 8.58 111.48 7.71L111.48 7.71L111.48 7.71Q112.42 6.83 113.92 6.83L113.92 6.83L113.92 6.83Q114.83 6.83 115.54 7.22L115.54 7.22L115.54 7.22Q116.24 7.62 116.72 8.51L116.72 8.51L115.29 9.28L115.29 9.28Q114.84 8.18 113.88 8.18L113.88 8.18L113.88 8.18Q113.11 8.18 112.64 8.72L112.64 8.72L112.64 8.72Q112.18 9.27 112.18 10.49L112.18 10.49L112.18 10.49Q112.18 11.69 112.64 12.25L112.64 12.25L112.64 12.25Q113.11 12.81 113.88 12.81L113.88 12.81L113.88 12.81Q114.79 12.81 115.29 11.83L115.29 11.83L116.72 12.57ZM122.37 6.85L122.37 6.85Q123.63 6.85 124.24 7.57L124.24 7.57L124.24 7.57Q124.85 8.30 124.85 9.97L124.85 9.97L124.85 14L123.28 14L123.28 10.56L123.28 10.56Q123.28 9.69 123.19 9.20L123.19 9.20L123.19 9.20Q123.10 8.71 122.82 8.45L122.82 8.45L122.82 8.45Q122.54 8.19 121.98 8.19L121.98 8.19L121.98 8.19Q121.30 8.19 120.83 8.55L120.83 8.55L120.83 8.55Q120.36 8.90 120.13 9.34L120.13 9.34L120.13 14L118.57 14L118.57 2.80L120.13 2.80L120.13 7.67L120.13 7.67Q120.53 7.28 121.10 7.06L121.10 7.06L121.10 7.06Q121.67 6.85 122.37 6.85L122.37 6.85Z"></path></g><defs data-v-423bf9ae=""><linearGradient data-v-423bf9ae="" gradientTransform="rotate(25)" id="581a3318-9367-4e2b-b456-38f3ea18bdf7" x1="0%" y1="0%" x2="100%" y2="0%"><stop data-v-423bf9ae="" offset="0%" style="stop-color: rgb(135, 84, 78); stop-opacity: 1;"></stop><stop data-v-423bf9ae="" offset="100%" style="stop-color: rgb(135, 84, 78); stop-opacity: 1;"></stop></linearGradient></defs><g data-v-423bf9ae="" id="0e6f4909-92b9-49a0-ad0d-64a6ee8271e8" transform="matrix(2.5,0,0,2.5,-12,-75)" stroke="none" fill="url(#581a3318-9367-4e2b-b456-38f3ea18bdf7)"><path d="M89 46H38.948C40.216 44.324 41 42.256 41 40c0-5.516-4.488-10-10-10s-10 4.484-10 10l.004.056C19.328 38.788 17.26 38 15 38 9.488 38 5 42.484 5 48s4.488 10 10 10c2.26 0 4.328-.784 6.004-2.057L21 56c0 5.516 4.488 10 10 10s10-4.484 10-10c0-2.256-.78-4.324-2.052-6H73v4c0 1.1.9 2 2 2s2-.9 2-2v-4h4v8c0 1.1.9 2 2 2s2-.9 2-2v-8h4c1.1 0 2-.9 2-2s-.9-2-2-2z"></path></g><!----></svg>