<svg data-v-423bf9ae="" xmlns="http://www.w3.org/2000/svg" viewBox="0 0 757 90" class="iconLeft"><!----><!----><!----><g data-v-423bf9ae="" id="51883a50-ec0f-489f-8689-b854f98497ef" fill="black" transform="matrix(6.109979823280842,0,0,6.109979823280842,79.20950656613013,8.890020176719155)"><path d="M10.74 4.13L10.74 4.13L10.74 4.13Q10.74 4.83 10.51 5.37L10.51 5.37L10.51 5.37Q10.28 5.91 9.79 6.28L9.79 6.28L9.79 6.28Q9.30 6.65 8.52 6.84L8.52 6.84L8.52 6.84Q7.75 7.03 6.65 7.03L6.65 7.03L2.43 7.03L2.43 10.64L1.58 10.64L1.58 1.24L6.65 1.24L6.65 1.24Q7.75 1.24 8.52 1.43L8.52 1.43L8.52 1.43Q9.30 1.62 9.79 1.98L9.79 1.98L9.79 1.98Q10.28 2.34 10.51 2.88L10.51 2.88L10.51 2.88Q10.74 3.42 10.74 4.13ZM9.86 4.13L9.86 4.13L9.86 4.13Q9.86 3.46 9.64 3.05L9.64 3.05L9.64 3.05Q9.41 2.64 8.95 2.42L8.95 2.42L8.95 2.42Q8.49 2.19 7.78 2.12L7.78 2.12L7.78 2.12Q7.08 2.04 6.10 2.04L6.10 2.04L2.43 2.04L2.43 6.23L6.10 6.23L6.10 6.23Q6.48 6.23 6.91 6.23L6.91 6.23L6.91 6.23Q7.33 6.23 7.75 6.19L7.75 6.19L7.75 6.19Q8.17 6.15 8.55 6.03L8.55 6.03L8.55 6.03Q8.93 5.92 9.22 5.69L9.22 5.69L9.22 5.69Q9.51 5.46 9.68 5.08L9.68 5.08L9.68 5.08Q9.86 4.70 9.86 4.13ZM23.30 5.93L23.30 5.93L23.30 5.93Q23.30 6.84 23.11 7.54L23.11 7.54L23.11 7.54Q22.92 8.24 22.58 8.76L22.58 8.76L22.58 8.76Q22.24 9.28 21.75 9.64L21.75 9.64L21.75 9.64Q21.26 10.00 20.66 10.22L20.66 10.22L20.66 10.22Q20.06 10.44 19.36 10.54L19.36 10.54L19.36 10.54Q18.66 10.64 17.89 10.64L17.89 10.64L13.04 10.64L13.04 1.24L17.88 1.24L17.88 1.24Q19.03 1.24 20.02 1.47L20.02 1.47L20.02 1.47Q21.01 1.70 21.74 2.24L21.74 2.24L21.74 2.24Q22.47 2.78 22.88 3.68L22.88 3.68L22.88 3.68Q23.30 4.59 23.30 5.93ZM22.42 5.93L22.42 5.93L22.42 5.93Q22.42 5.17 22.26 4.58L22.26 4.58L22.26 4.58Q22.11 3.99 21.83 3.56L21.83 3.56L21.83 3.56Q21.55 3.12 21.15 2.83L21.15 2.83L21.15 2.83Q20.75 2.54 20.24 2.35L20.24 2.35L20.24 2.35Q19.74 2.17 19.14 2.10L19.14 2.10L19.14 2.10Q18.55 2.02 17.88 2.02L17.88 2.02L13.90 2.02L13.90 9.85L17.88 9.85L17.88 9.85Q18.88 9.85 19.71 9.67L19.71 9.67L19.71 9.67Q20.55 9.49 21.15 9.04L21.15 9.04L21.15 9.04Q21.75 8.59 22.08 7.84L22.08 7.84L22.08 7.84Q22.42 7.08 22.42 5.93ZM33.22 2.04L26.64 2.04L26.64 5.28L32.89 5.28L32.89 6.07L26.64 6.07L26.64 10.64L25.79 10.64L25.79 1.24L33.22 1.24L33.22 2.04ZM40.68 1.24L41.54 1.24L41.54 2.69L41.54 2.69Q41.84 2.43 42.21 2.13L42.21 2.13L42.21 2.13Q42.57 1.84 43.02 1.59L43.02 1.59L43.02 1.59Q43.46 1.35 43.98 1.18L43.98 1.18L43.98 1.18Q44.50 1.02 45.10 1.02L45.10 1.02L45.10 1.02Q46.05 1.02 46.78 1.45L46.78 1.45L46.78 1.45Q47.51 1.87 47.96 2.77L47.96 2.77L47.96 2.77Q48.40 2.37 48.86 2.04L48.86 2.04L48.86 2.04Q49.33 1.72 49.82 1.49L49.82 1.49L49.82 1.49Q50.31 1.26 50.83 1.14L50.83 1.14L50.83 1.14Q51.34 1.02 51.90 1.02L51.90 1.02L51.90 1.02Q52.60 1.02 53.18 1.26L53.18 1.26L53.18 1.26Q53.76 1.50 54.16 1.91L54.16 1.91L54.16 1.91Q54.56 2.33 54.79 2.90L54.79 2.90L54.79 2.90Q55.01 3.46 55.01 4.10L55.01 4.10L55.01 10.64L54.15 10.64L54.15 4.32L54.15 4.32Q54.15 3.73 54.01 3.27L54.01 3.27L54.01 3.27Q53.87 2.81 53.58 2.49L53.58 2.49L53.58 2.49Q53.28 2.17 52.82 2.00L52.82 2.00L52.82 2.00Q52.36 1.83 51.71 1.83L51.71 1.83L51.71 1.83Q51.20 1.83 50.70 1.98L50.70 1.98L50.70 1.98Q50.20 2.13 49.74 2.37L49.74 2.37L49.74 2.37Q49.28 2.61 48.88 2.92L48.88 2.92L48.88 2.92Q48.49 3.23 48.19 3.55L48.19 3.55L48.19 3.55Q48.22 3.75 48.22 3.88L48.22 3.88L48.22 3.88Q48.23 4.02 48.23 4.21L48.23 4.21L48.23 10.64L47.37 10.64L47.37 4.32L47.37 4.32Q47.37 3.62 47.19 3.15L47.19 3.15L47.19 3.15Q47.00 2.67 46.68 2.38L46.68 2.38L46.68 2.38Q46.35 2.08 45.90 1.96L45.90 1.96L45.90 1.96Q45.45 1.83 44.93 1.83L44.93 1.83L44.93 1.83Q44.43 1.83 43.94 2.00L43.94 2.00L43.94 2.00Q43.45 2.17 43.00 2.45L43.00 2.45L43.00 2.45Q42.56 2.72 42.18 3.06L42.18 3.06L42.18 3.06Q41.81 3.40 41.54 3.73L41.54 3.73L41.54 10.64L40.68 10.64L40.68 1.24ZM67.48 10.64L66.63 10.64L66.63 9.60L66.63 9.60Q66.14 9.86 65.51 10.09L65.51 10.09L65.51 10.09Q64.89 10.32 64.19 10.48L64.19 10.48L64.19 10.48Q63.50 10.64 62.77 10.73L62.77 10.73L62.77 10.73Q62.04 10.82 61.33 10.82L61.33 10.82L61.33 10.82Q60.42 10.82 59.69 10.66L59.69 10.66L59.69 10.66Q58.96 10.49 58.45 10.17L58.45 10.17L58.45 10.17Q57.95 9.84 57.67 9.36L57.67 9.36L57.67 9.36Q57.40 8.88 57.40 8.24L57.40 8.24L57.40 8.24Q57.40 7.62 57.72 7.13L57.72 7.13L57.72 7.13Q58.04 6.65 58.63 6.29L58.63 6.29L58.63 6.29Q59.21 5.93 60.04 5.68L60.04 5.68L60.04 5.68Q60.87 5.43 61.90 5.26L61.90 5.26L61.90 5.26Q62.92 5.09 64.12 4.97L64.12 4.97L64.12 4.97Q65.31 4.86 66.63 4.79L66.63 4.79L66.63 4.07L66.63 4.07Q66.63 3.63 66.47 3.29L66.47 3.29L66.47 3.29Q66.30 2.96 66.01 2.71L66.01 2.71L66.01 2.71Q65.71 2.46 65.32 2.29L65.32 2.29L65.32 2.29Q64.92 2.13 64.46 2.02L64.46 2.02L64.46 2.02Q64.00 1.92 63.49 1.88L63.49 1.88L63.49 1.88Q62.98 1.83 62.47 1.83L62.47 1.83L62.47 1.83Q61.78 1.83 61.21 1.90L61.21 1.90L61.21 1.90Q60.64 1.97 60.15 2.09L60.15 2.09L60.15 2.09Q59.66 2.21 59.21 2.37L59.21 2.37L59.21 2.37Q58.75 2.52 58.30 2.70L58.30 2.70L58.30 1.70L58.30 1.70Q59.25 1.45 60.32 1.26L60.32 1.26L60.32 1.26Q61.40 1.07 62.61 1.07L62.61 1.07L62.61 1.07Q63.64 1.07 64.52 1.25L64.52 1.25L64.52 1.25Q65.41 1.42 66.07 1.80L66.07 1.80L66.07 1.80Q66.73 2.19 67.10 2.79L67.10 2.79L67.10 2.79Q67.48 3.40 67.48 4.27L67.48 4.27L67.48 10.64ZM66.63 8.70L66.63 5.54L66.63 5.54Q64.39 5.67 62.81 5.89L62.81 5.89L62.81 5.89Q61.23 6.12 60.22 6.45L60.22 6.45L60.22 6.45Q59.22 6.77 58.75 7.21L58.75 7.21L58.75 7.21Q58.28 7.65 58.28 8.20L58.28 8.20L58.28 8.20Q58.28 8.65 58.51 9.00L58.51 9.00L58.51 9.00Q58.74 9.35 59.17 9.59L59.17 9.59L59.17 9.59Q59.60 9.82 60.22 9.94L60.22 9.94L60.22 9.94Q60.83 10.06 61.60 10.06L61.60 10.06L61.60 10.06Q62.05 10.06 62.53 10.01L62.53 10.01L62.53 10.01Q63.01 9.96 63.49 9.87L63.49 9.87L63.49 9.87Q63.97 9.78 64.44 9.65L64.44 9.65L64.44 9.65Q64.90 9.52 65.31 9.37L65.31 9.37L65.31 9.37Q65.72 9.22 66.06 9.05L66.06 9.05L66.06 9.05Q66.40 8.88 66.63 8.70L66.63 8.70ZM78.15 1.65L78.15 2.63L78.15 2.63Q77.88 2.50 77.53 2.35L77.53 2.35L77.53 2.35Q77.18 2.21 76.74 2.09L76.74 2.09L76.74 2.09Q76.29 1.98 75.73 1.90L75.73 1.90L75.73 1.90Q75.17 1.82 74.48 1.82L74.48 1.82L74.48 1.82Q73.66 1.82 73.01 1.91L73.01 1.91L73.01 1.91Q72.37 2.01 71.92 2.21L71.92 2.21L71.92 2.21Q71.47 2.41 71.23 2.72L71.23 2.72L71.23 2.72Q71.00 3.03 71.00 3.45L71.00 3.45L71.00 3.45Q71.00 3.81 71.22 4.07L71.22 4.07L71.22 4.07Q71.44 4.34 71.82 4.55L71.82 4.55L71.82 4.55Q72.20 4.75 72.71 4.92L72.71 4.92L72.71 4.92Q73.22 5.09 73.79 5.23L73.79 5.23L73.79 5.23Q74.36 5.38 74.97 5.53L74.97 5.53L74.97 5.53Q75.57 5.68 76.14 5.85L76.14 5.85L76.14 5.85Q76.71 6.03 77.22 6.24L77.22 6.24L77.22 6.24Q77.73 6.46 78.11 6.75L78.11 6.75L78.11 6.75Q78.49 7.03 78.71 7.40L78.71 7.40L78.71 7.40Q78.93 7.77 78.93 8.26L78.93 8.26L78.93 8.26Q78.93 8.78 78.74 9.18L78.74 9.18L78.74 9.18Q78.54 9.57 78.20 9.85L78.20 9.85L78.20 9.85Q77.86 10.14 77.41 10.33L77.41 10.33L77.41 10.33Q76.95 10.51 76.44 10.62L76.44 10.62L76.44 10.62Q75.92 10.73 75.37 10.78L75.37 10.78L75.37 10.78Q74.82 10.82 74.29 10.82L74.29 10.82L74.29 10.82Q73.06 10.82 72.07 10.64L72.07 10.64L72.07 10.64Q71.07 10.47 70.17 10.16L70.17 10.16L70.17 9.11L70.17 9.11Q71.10 9.67 72.14 9.87L72.14 9.87L72.14 9.87Q73.17 10.08 74.31 10.08L74.31 10.08L74.31 10.08Q75.12 10.08 75.80 9.98L75.80 9.98L75.80 9.98Q76.49 9.88 76.99 9.68L76.99 9.68L76.99 9.68Q77.49 9.47 77.76 9.13L77.76 9.13L77.76 9.13Q78.04 8.80 78.04 8.31L78.04 8.31L78.04 8.31Q78.04 7.92 77.82 7.63L77.82 7.63L77.82 7.63Q77.59 7.33 77.22 7.11L77.22 7.11L77.22 7.11Q76.84 6.89 76.33 6.72L76.33 6.72L76.33 6.72Q75.82 6.55 75.25 6.40L75.25 6.40L75.25 6.40Q74.68 6.25 74.08 6.11L74.08 6.11L74.08 6.11Q73.47 5.97 72.91 5.81L72.91 5.81L72.91 5.81Q72.34 5.65 71.83 5.44L71.83 5.44L71.83 5.44Q71.32 5.24 70.94 4.96L70.94 4.96L70.94 4.96Q70.56 4.68 70.34 4.32L70.34 4.32L70.34 4.32Q70.12 3.96 70.12 3.48L70.12 3.48L70.12 3.48Q70.12 3.01 70.29 2.64L70.29 2.64L70.29 2.64Q70.47 2.28 70.78 2.01L70.78 2.01L70.78 2.01Q71.09 1.74 71.51 1.56L71.51 1.56L71.51 1.56Q71.93 1.38 72.40 1.27L72.40 1.27L72.40 1.27Q72.88 1.17 73.39 1.12L73.39 1.12L73.39 1.12Q73.90 1.07 74.40 1.07L74.40 1.07L74.40 1.07Q74.95 1.07 75.44 1.12L75.44 1.12L75.44 1.12Q75.93 1.17 76.38 1.25L76.38 1.25L76.38 1.25Q76.84 1.33 77.27 1.43L77.27 1.43L77.27 1.43Q77.70 1.53 78.15 1.65L78.15 1.65ZM89.66 2.02L85.39 2.02L85.39 10.64L84.54 10.64L84.54 2.02L80.27 2.02L80.27 1.24L89.66 1.24L89.66 2.02ZM100.69 9.15L100.69 10.14L100.69 10.14Q100.12 10.32 99.63 10.45L99.63 10.45L99.63 10.45Q99.13 10.58 98.66 10.65L98.66 10.65L98.66 10.65Q98.18 10.73 97.68 10.77L97.68 10.77L97.68 10.77Q97.19 10.81 96.59 10.81L96.59 10.81L96.59 10.81Q95.21 10.81 94.10 10.47L94.10 10.47L94.10 10.47Q92.98 10.14 92.20 9.51L92.20 9.51L92.20 9.51Q91.42 8.89 90.99 8.00L90.99 8.00L90.99 8.00Q90.57 7.11 90.57 6.00L90.57 6.00L90.57 6.00Q90.57 4.93 90.98 4.03L90.98 4.03L90.98 4.03Q91.38 3.14 92.11 2.50L92.11 2.50L92.11 2.50Q92.85 1.85 93.86 1.50L93.86 1.50L93.86 1.50Q94.88 1.14 96.11 1.14L96.11 1.14L96.11 1.14Q97.39 1.14 98.39 1.48L98.39 1.48L98.39 1.48Q99.39 1.83 100.07 2.46L100.07 2.46L100.07 2.46Q100.75 3.10 101.11 4.00L101.11 4.00L101.11 4.00Q101.47 4.91 101.47 6.04L101.47 6.04L101.47 6.25L91.45 6.25L91.45 6.25Q91.53 7.13 91.89 7.83L91.89 7.83L91.89 7.83Q92.25 8.54 92.92 9.03L92.92 9.03L92.92 9.03Q93.58 9.52 94.56 9.79L94.56 9.79L94.56 9.79Q95.53 10.05 96.83 10.05L96.83 10.05L96.83 10.05Q97.38 10.05 97.95 9.97L97.95 9.97L97.95 9.97Q98.52 9.90 99.04 9.77L99.04 9.77L99.04 9.77Q99.56 9.65 99.99 9.48L99.99 9.48L99.99 9.48Q100.42 9.32 100.69 9.15L100.69 9.15ZM91.45 5.51L100.63 5.51L100.63 5.51Q100.58 4.79 100.30 4.14L100.30 4.14L100.30 4.14Q100.03 3.49 99.49 2.99L99.49 2.99L99.49 2.99Q98.94 2.49 98.11 2.19L98.11 2.19L98.11 2.19Q97.27 1.90 96.10 1.90L96.10 1.90L96.10 1.90Q95.00 1.90 94.17 2.19L94.17 2.19L94.17 2.19Q93.34 2.49 92.77 2.98L92.77 2.98L92.77 2.98Q92.20 3.48 91.87 4.13L91.87 4.13L91.87 4.13Q91.54 4.79 91.45 5.51L91.45 5.51ZM110.93 1.97L110.93 1.97L110.93 1.97Q110.73 1.91 110.38 1.84L110.38 1.84L110.38 1.84Q110.02 1.76 109.47 1.76L109.47 1.76L109.47 1.76Q108.71 1.76 108.03 1.95L108.03 1.95L108.03 1.95Q107.36 2.14 106.78 2.46L106.78 2.46L106.78 2.46Q106.20 2.78 105.71 3.21L105.71 3.21L105.71 3.21Q105.22 3.64 104.82 4.12L104.82 4.12L104.82 10.64L103.97 10.64L103.97 1.24L104.82 1.24L104.82 3.16L104.82 3.16Q105.28 2.69 105.82 2.29L105.82 2.29L105.82 2.29Q106.35 1.89 106.95 1.61L106.95 1.61L106.95 1.61Q107.54 1.33 108.20 1.17L108.20 1.17L108.20 1.17Q108.85 1.00 109.55 1.00L109.55 1.00L109.55 1.00Q109.79 1.00 109.98 1.02L109.98 1.02L109.98 1.02Q110.17 1.03 110.33 1.04L110.33 1.04L110.33 1.04Q110.49 1.06 110.63 1.08L110.63 1.08L110.63 1.08Q110.78 1.10 110.93 1.13L110.93 1.13L110.93 1.97Z"></path></g><!----><g data-v-423bf9ae="" id="cecd0610-e1c0-4f30-b109-3ceba3f4c0e0" transform="matrix(1.2971291135248577,0,0,1.2971291135248577,-30.40110260279421,-19.548452637590245)" stroke="none" fill="black"><path d="M60.146 18.468c0-1.086.628-1.347 1.396-.579l12.423 12.424c.768.768.508 1.396-.578 1.396H62.12a1.981 1.981 0 0 1-1.975-1.975V18.468zm-9.435 25.531h-1.445v9.492h1.416c1.158 0 2.041-.383 2.646-1.146.605-.766.908-1.857.908-3.277v-.664c0-1.445-.3-2.541-.898-3.286-.6-.747-1.475-1.119-2.627-1.119zm-9.907.717c-.192-.218-.439-.392-.742-.522s-.663-.195-1.079-.195h-2.617v4.463h2.617c.417 0 .776-.052 1.079-.156s.55-.249.742-.435.333-.409.425-.669.137-.543.137-.85-.045-.601-.137-.884-.233-.533-.425-.752zM74.57 34.077H59.751a1.981 1.981 0 0 1-1.975-1.975V17.283a1.981 1.981 0 0 0-1.975-1.975h-30.37a1.981 1.981 0 0 0-1.975 1.975v65.434c0 1.086.889 1.975 1.975 1.975h49.14a1.98 1.98 0 0 0 1.974-1.975V36.052a1.982 1.982 0 0 0-1.975-1.975zM43.963 48.198c-.241.553-.591 1.025-1.05 1.416s-1.019.692-1.68.903-1.411.317-2.251.317h-2.617v5.009h-2.93V41.625h5.547c.84 0 1.59.117 2.251.352s1.221.562 1.68.981.809.918 1.05 1.494.361 1.203.361 1.88c0 .69-.12 1.313-.361 1.866zm13.242.869c0 1.016-.158 1.939-.474 2.769s-.762 1.543-1.338 2.139-1.265 1.057-2.065 1.381c-.801.326-1.684.488-2.646.488h-4.346V41.625h4.375c.957 0 1.834.165 2.632.493s1.481.791 2.051 1.387 1.014 1.31 1.333 2.144.479 1.758.479 2.773v.645zm11.387-5.068h-6.328v3.672h5.625v2.363h-5.625v5.81h-2.93V41.625h9.258v2.374z"></path></g><!----></svg>