<svg data-v-423bf9ae="" xmlns="http://www.w3.org/2000/svg" viewBox="0 0 376 90" class="iconLeft"><!----><!----><!----><g data-v-423bf9ae="" id="5024dbaf-6e42-4f0b-bda7-01a1815e0735" fill="#19CEDA" transform="matrix(6.211180222334461,0,0,6.211180222334461,109.75456852083727,3.0124234251835276)"><path d="M7.71 2.21L0.20 2.21L0.20 3.22L3.43 3.22L3.43 11.48L4.48 11.48L4.48 3.22L7.71 3.22ZM14.94 11.48L16.14 11.48L18.34 4.48L17.22 4.48L15.54 10.18L13.76 4.48L12.61 4.48L10.84 10.18L9.16 4.48L8.04 4.48L10.23 11.48L11.44 11.48L13.19 5.89ZM19.38 11.48L20.43 11.48L20.43 4.48L19.38 4.48ZM19.33 1.93L19.33 3.30L20.47 3.30L20.47 1.93ZM24.05 11.48L24.05 5.40L25.66 5.40L25.66 4.48L24.05 4.48L24.05 1.97L23.00 1.97L23.00 4.48L21.57 4.48L21.57 5.40L23.00 5.40L23.00 11.48ZM28.62 11.48L28.62 5.40L30.23 5.40L30.23 4.48L28.62 4.48L28.62 1.97L27.57 1.97L27.57 4.48L26.14 4.48L26.14 5.40L27.57 5.40L27.57 11.48ZM34.36 10.64C32.94 10.64 32.03 9.65 31.88 8.40L37.74 8.40L37.74 7.98C37.74 5.98 36.41 4.37 34.27 4.37C32.13 4.37 30.80 5.98 30.80 7.98C30.80 9.98 32.20 11.59 34.34 11.59C36.01 11.59 37.04 10.72 37.53 9.46L36.39 9.46C36.01 10.16 35.34 10.64 34.36 10.64ZM34.27 5.32C35.62 5.32 36.46 6.23 36.65 7.42L31.89 7.42C32.09 6.23 32.93 5.32 34.27 5.32ZM42.66 4.37C40.92 4.37 40.22 5.73 40.08 6.20L40.08 4.48L39.03 4.48L39.03 11.48L40.08 11.48L40.08 8.40C40.08 6.86 41.03 5.42 42.60 5.42L42.73 5.42L42.73 4.37Z"></path></g><!----><g data-v-423bf9ae="" id="46db50a4-f6d4-4845-8b75-f7b2f04cafb4" transform="matrix(1.4839284110410047,0,0,1.4839284110410047,-34.95734927361168,-22.259084002068107)" stroke="none" fill="#19CEDA"><path d="M46.919 32.18c0 1.516.706 2.852 1.791 3.744a3.633 3.633 0 0 1-1.025-2.528 3.653 3.653 0 1 1 7.307 0c0 1.94-1.518 3.512-3.43 3.63.076.004.148.023.225.023a4.87 4.87 0 1 0-4.868-4.869zM41.492 37.556c-1.886-.144-3.377-1.702-3.377-3.625a3.653 3.653 0 1 1 7.306 0c0 .858-.309 1.638-.805 2.261a4.847 4.847 0 0 0 1.467-3.477 4.868 4.868 0 1 0-4.867 4.869c.094 0 .182-.023.276-.028zM45.013 38.338l.953 1.65.953 1.651.953-1.651.952-1.65h-1.905zM58.602 56.87c-3.029-1.511-7.778-2.138-10.637-.014-1.487 1.105-2.828 2.138-3.674 3.674-.436.796-.978 1.733-.689 2.779.682 4.577 6.383 6.685 10.282 7.317 2.746.447 5.777.547 8.361-.405 1.707-.63 1.926-.302 1.979-2.537.092-4.178-1.638-8.827-5.622-10.814z"></path><path d="M84.668 71.568c-2.148.471-4.496.875-6.033-.593.967.726 6.033.593 5.645-.448-.588-.358-.871-.773-1.098-1.33-.105-.258-.023-1.554-.27-1.727-.447-.313-1.494.556-2.021.639-1.088.174-2.1.391-3.203.404.982-.383 3.264-.696 3.283-1.974.018-1.048-1.43-2.065-1.795-3.104-.879-.033-2.137 2.225-2.668 3.001l-1.195 1.374a121.176 121.176 0 0 0-1.449-4.071c-1-2.663-2.275-5.202-3.625-7.705-.805-1.493-1.598-2.974-2.574-4.319 1.797-1.425 3.398-4.109 3.793-9.105 0 0-.1-4.176-1.014-6.479 0 0-4.881 7.922-10.908 9.685a25.734 25.734 0 0 0-2.049-.717c2.463-2.704 3.979-6.288 3.979-10.233 0-6.91-4.609-12.736-10.918-14.594 1.038-.727 1.668-1.734 1.495-3.133-1.676-.309-3.737 1.481-5.016 2.545-.236-.012-.471-.034-.71-.035 1.735-1.931 3.382-4.24 1.526-4.26-1.398-.015-2.678 1.848-3.621 3.701.816-2.132 1.276-4.445-1.084-4.044-2.339.397-1.12 3.011-.43 5.028-6.697 1.597-11.685 7.604-11.685 14.791a15.193 15.193 0 0 0 7.563 13.154c-.07.079-.137.16-.204.24-6.245 1.608-14.703-3.566-14.703-3.566.226 2.467 2.023 6.236 2.023 6.236 4.286 7.033 8.665 7.034 11.228 6.156.213.966.48 1.92.799 2.85 2.178 6.351 6.557 10.839 13.286 12.125 2.857.546 5.791.633 8.691.594 3.154-.043 6.273-.718 9.43-.641.703.018 4.244.208 6.295.602 1.207.461 2.346 1.167 3.539 1.627 1.186.455 4.148 1.671 5.434 1.357 1.01-.245.479-3.103.264-4.031zm-35.844-33.23l-.952 1.65-.952 1.65-.953-1.65-.953-1.65H48.824zm7.832-6.158a4.87 4.87 0 0 1-4.869 4.869c-.076 0-.148-.02-.225-.023 1.912-.118 3.43-1.689 3.43-3.63a3.654 3.654 0 0 0-7.307 0c0 .983.394 1.872 1.025 2.528-1.085-.893-1.791-2.229-1.791-3.744a4.869 4.869 0 0 1 9.737 0zm-20.309.535a4.869 4.869 0 0 1 9.736 0 4.844 4.844 0 0 1-1.467 3.477 3.615 3.615 0 0 0 .805-2.261 3.653 3.653 0 1 0-7.306 0c0 1.923 1.491 3.481 3.377 3.625-.094.005-.182.028-.275.028a4.87 4.87 0 0 1-4.87-4.869zm25.897 37.507c-2.584.952-5.615.853-8.361.405-3.899-.633-9.6-2.74-10.282-7.317-.288-1.046.254-1.983.689-2.779.846-1.536 2.187-2.568 3.674-3.674 2.859-2.124 7.608-1.497 10.637.014 3.984 1.987 5.715 6.636 5.621 10.814-.052 2.235-.271 1.907-1.978 2.537z"></path></g><!----></svg>