<svg data-v-423bf9ae="" xmlns="http://www.w3.org/2000/svg" viewBox="0 0 264.1614872738775 60" class="font"><!----><!----><!----><g data-v-423bf9ae="" id="803103da-6783-4110-9651-b352d47edcef" fill="black" transform="matrix(6.211180222334461,0,0,6.211180222334461,-1.2422347628541388,-11.987578482165105)"><path d="M7.71 2.21L0.20 2.21L0.20 3.22L3.43 3.22L3.43 11.48L4.48 11.48L4.48 3.22L7.71 3.22ZM14.94 11.48L16.14 11.48L18.34 4.48L17.22 4.48L15.54 10.18L13.76 4.48L12.61 4.48L10.84 10.18L9.16 4.48L8.04 4.48L10.23 11.48L11.44 11.48L13.19 5.89ZM19.38 11.48L20.43 11.48L20.43 4.48L19.38 4.48ZM19.33 1.93L19.33 3.30L20.47 3.30L20.47 1.93ZM24.05 11.48L24.05 5.40L25.66 5.40L25.66 4.48L24.05 4.48L24.05 1.97L23.00 1.97L23.00 4.48L21.57 4.48L21.57 5.40L23.00 5.40L23.00 11.48ZM28.62 11.48L28.62 5.40L30.23 5.40L30.23 4.48L28.62 4.48L28.62 1.97L27.57 1.97L27.57 4.48L26.14 4.48L26.14 5.40L27.57 5.40L27.57 11.48ZM34.36 10.64C32.94 10.64 32.03 9.65 31.88 8.40L37.74 8.40L37.74 7.98C37.74 5.98 36.41 4.37 34.27 4.37C32.13 4.37 30.80 5.98 30.80 7.98C30.80 9.98 32.20 11.59 34.34 11.59C36.01 11.59 37.04 10.72 37.53 9.46L36.39 9.46C36.01 10.16 35.34 10.64 34.36 10.64ZM34.27 5.32C35.62 5.32 36.46 6.23 36.65 7.42L31.89 7.42C32.09 6.23 32.93 5.32 34.27 5.32ZM42.66 4.37C40.92 4.37 40.22 5.73 40.08 6.20L40.08 4.48L39.03 4.48L39.03 11.48L40.08 11.48L40.08 8.40C40.08 6.86 41.03 5.42 42.60 5.42L42.73 5.42L42.73 4.37Z"></path></g><!----><!----></svg>