<svg data-v-423bf9ae="" xmlns="http://www.w3.org/2000/svg" viewBox="0 0 396.3225129737482 60" class="font"><!----><!----><!----><g data-v-423bf9ae="" id="87af3c6f-4745-4e8e-8b53-e1ebd32fda68" fill="white" transform="matrix(4.243281654165035,0,0,4.243281654165035,-7.298443548022362,-31.782178618486014)"><path d="M2.53 19.19L2.53 19.19Q2.13 19.19 1.93 19.01L1.93 19.01L1.93 19.01Q1.72 18.82 1.72 18.38L1.72 18.38L1.72 18.38Q1.72 17.54 1.94 15.81L1.94 15.81L1.94 15.81Q2.16 14.08 2.81 9.84L2.81 9.84L2.45 9.14L2.45 9.14Q2.84 8.89 3.19 8.78L3.19 8.78L3.19 8.78Q3.53 8.67 3.78 8.67L3.78 8.67L3.78 8.67Q4.49 8.67 4.86 9.08L4.86 9.08L4.86 9.08Q5.22 9.49 5.51 10.53L5.51 10.53L5.51 10.53Q5.80 11.56 6.40 14.34L6.40 14.34L6.40 14.34Q6.50 14.78 6.64 15.44L6.64 15.44L6.64 15.44Q6.78 16.10 6.97 17.00L6.97 17.00L7.13 17.00L7.13 17.00Q7.62 14.91 8.65 12.97L8.65 12.97L8.65 12.97Q9.69 11.03 10.93 9.84L10.93 9.84L10.93 9.84Q12.17 8.64 13.22 8.64L13.22 8.64L13.22 8.64Q13.33 8.64 13.43 8.75L13.43 8.75L13.43 8.75Q13.52 8.86 13.52 9.14L13.52 9.14L13.52 9.14Q13.52 9.37 13.16 11.65L13.16 11.65L13.16 11.65Q12.33 17.04 12.33 17.96L12.33 17.96L12.33 17.96Q12.33 18.56 12.66 18.93L12.66 18.93L12.66 18.93Q12.17 19.22 11.73 19.22L11.73 19.22L11.73 19.22Q11.34 19.22 11.14 19.03L11.14 19.03L11.14 19.03Q10.95 18.84 10.95 18.41L10.95 18.41L10.95 18.41Q10.95 17.54 11.15 15.88L11.15 15.88L11.15 15.88Q11.35 14.22 11.94 10.51L11.94 10.51L11.87 10.51L11.87 10.51Q10.88 11.31 10.08 12.69L10.08 12.69L10.08 12.69Q9.28 14.07 8.79 15.48L8.79 15.48L8.79 15.48Q8.29 16.88 8.13 17.82L8.13 17.82L8.13 17.82Q7.90 18.03 7.62 18.14L7.62 18.14L7.62 18.14Q7.34 18.26 7.07 18.26L7.07 18.26L7.07 18.26Q6.47 18.26 6.17 17.91L6.17 17.91L6.17 17.91Q5.88 17.57 5.59 16.49L5.59 16.49L5.59 16.49Q5.29 15.40 4.55 12.19L4.55 12.19L4.55 12.19Q4.54 12.12 4.16 10.51L4.16 10.51L4.09 10.51L4.09 10.51Q3.99 11.28 3.89 11.93L3.89 11.93L3.89 11.93Q3.79 12.57 3.72 13.05L3.72 13.05L3.72 13.05Q3.43 15.06 3.27 16.26L3.27 16.26L3.27 16.26Q3.11 17.46 3.11 17.93L3.11 17.93L3.11 17.93Q3.11 18.56 3.43 18.90L3.43 18.90L3.43 18.90Q2.98 19.19 2.53 19.19L2.53 19.19ZM22.65 10.43L22.65 10.43Q23.20 10.43 23.20 11.17L23.20 11.17L23.20 11.17Q23.20 13.58 22.20 16.02L22.20 16.02L22.20 16.02Q21.20 18.45 19.38 20.04L19.38 20.04L19.38 20.04Q17.56 21.63 15.22 21.63L15.22 21.63L15.22 21.63Q14.42 21.63 14.03 21.35L14.03 21.35L14.03 21.35Q13.64 21.07 13.64 20.61L13.64 20.61L13.64 20.61Q13.64 20.34 13.82 19.95L13.82 19.95L13.82 19.95Q14.13 20.27 14.51 20.47L14.51 20.47L14.51 20.47Q14.90 20.66 15.62 20.66L15.62 20.66L15.62 20.66Q16.31 20.66 17.23 20.29L17.23 20.29L17.23 20.29Q18.14 19.92 18.98 19.18L18.98 19.18L18.98 19.18Q17.91 19.12 17.39 18.48L17.39 18.48L17.39 18.48Q16.87 17.84 16.73 16.94L16.73 16.94L16.73 16.94Q16.59 16.04 16.55 14.57L16.55 14.57L16.55 14.57Q16.52 13.52 16.46 12.87L16.46 12.87L16.46 12.87Q16.41 12.22 16.21 11.64L16.21 11.64L16.21 11.64Q16.02 11.06 15.62 10.71L15.62 10.71L15.62 10.71Q15.99 10.43 16.41 10.43L16.41 10.43L16.41 10.43Q17.11 10.43 17.43 10.93L17.43 10.93L17.43 10.93Q17.75 11.44 17.83 12.19L17.83 12.19L17.83 12.19Q17.91 12.95 17.92 14.24L17.92 14.24L17.92 14.24Q17.93 15.58 18.02 16.40L18.02 16.40L18.02 16.40Q18.10 17.22 18.45 17.85L18.45 17.85L18.45 17.85Q18.80 18.48 19.54 18.62L19.54 18.62L19.54 18.62Q20.58 17.46 21.21 15.69L21.21 15.69L21.21 15.69Q21.84 13.92 21.84 11.48L21.84 11.48L21.84 11.48Q21.84 10.91 21.81 10.71L21.81 10.71L21.81 10.71Q22.15 10.53 22.30 10.48L22.30 10.48L22.30 10.48Q22.44 10.43 22.65 10.43L22.65 10.43ZM41.64 9.87L41.64 9.87Q41.64 10.96 40.59 13.21L40.59 13.21L40.59 13.21Q39.55 15.46 37.63 18.45L37.63 18.45L37.87 18.84L37.87 18.84Q37.70 19.01 37.30 19.13L37.30 19.13L37.30 19.13Q36.90 19.25 36.51 19.25L36.51 19.25L36.51 19.25Q35.77 19.25 35.52 18.75L35.52 18.75L35.52 18.75Q35.27 18.26 35.21 17.32L35.21 17.32L34.99 14.08L34.58 14.80L34.58 14.80Q33.53 16.67 32.80 17.64L32.80 17.64L32.80 17.64Q32.07 18.61 31.55 18.93L31.55 18.93L31.55 18.93Q31.02 19.25 30.46 19.25L30.46 19.25L30.46 19.25Q30.00 19.25 29.84 18.82L29.84 18.82L29.84 18.82Q29.68 18.40 29.68 17.63L29.68 17.63L29.69 16.20L29.69 16.20Q29.71 15.74 29.71 14.83L29.71 14.83L29.71 14.83Q29.71 12.70 29.46 11.27L29.46 11.27L29.46 11.27Q29.22 9.84 28.49 8.97L28.49 8.97L28.49 8.97Q28.92 8.67 29.46 8.67L29.46 8.67L29.46 8.67Q30.17 8.67 30.51 9.19L30.51 9.19L30.51 9.19Q30.86 9.72 30.98 10.87L30.98 10.87L30.98 10.87Q31.09 12.03 31.09 14.27L31.09 14.27L31.09 17.33L31.09 17.33Q31.09 17.61 31.10 17.77L31.10 17.77L31.10 17.77Q31.11 17.92 31.09 18.00L31.09 18.00L31.28 18.00L31.28 18.00Q33.64 15.06 34.85 12.14L34.85 12.14L34.66 9.58L34.66 9.58Q34.76 9.39 35.04 9.28L35.04 9.28L35.04 9.28Q35.32 9.17 35.73 9.17L35.73 9.17L35.73 9.17Q36.13 9.17 36.39 9.47L36.39 9.47L36.39 9.47Q36.65 9.77 36.65 10.28L36.65 10.28L36.65 10.28Q36.65 10.67 36.54 11.05L36.54 11.05L36.54 11.05Q36.43 11.44 36.16 11.97L36.16 11.97L36.34 18.00L36.51 18.00L36.51 18.00Q38.47 14.95 39.33 13.17L39.33 13.17L39.33 13.17Q40.19 11.38 40.19 10.44L40.19 10.44L40.19 10.44Q40.19 9.55 39.82 8.97L39.82 8.97L39.82 8.97Q40.24 8.76 40.43 8.72L40.43 8.72L40.43 8.72Q40.61 8.67 40.88 8.67L40.88 8.67L40.88 8.67Q41.22 8.67 41.43 9.00L41.43 9.00L41.43 9.00Q41.64 9.32 41.64 9.87L41.64 9.87ZM50.08 12.42L50.08 12.42Q50.08 13.86 48.59 14.67L48.59 14.67L48.59 14.67Q47.11 15.48 44.34 15.57L44.34 15.57L44.34 15.88L44.34 15.88Q44.34 17.04 44.78 17.70L44.78 17.70L44.78 17.70Q45.22 18.37 45.99 18.37L45.99 18.37L45.99 18.37Q46.94 18.37 47.55 17.78L47.55 17.78L47.55 17.78Q48.16 17.19 48.22 16.21L48.22 16.21L48.22 16.21Q49.21 16.21 49.21 16.97L49.21 16.97L49.21 16.97Q49.21 17.53 48.78 18.04L48.78 18.04L48.78 18.04Q48.34 18.55 47.58 18.87L47.58 18.87L47.58 18.87Q46.82 19.18 45.89 19.18L45.89 19.18L45.89 19.18Q44.46 19.18 43.67 18.28L43.67 18.28L43.67 18.28Q42.87 17.37 42.87 15.78L42.87 15.78L42.87 15.78Q42.87 14.27 43.51 13.04L43.51 13.04L43.51 13.04Q44.16 11.82 45.29 11.12L45.29 11.12L45.29 11.12Q46.42 10.43 47.82 10.43L47.82 10.43L47.82 10.43Q48.89 10.43 49.48 10.96L49.48 10.96L49.48 10.96Q50.08 11.48 50.08 12.42L50.08 12.42ZM47.64 11.12L47.64 11.12Q46.87 11.12 46.19 11.60L46.19 11.60L46.19 11.60Q45.51 12.08 45.05 12.94L45.05 12.94L45.05 12.94Q44.58 13.79 44.41 14.85L44.41 14.85L44.41 14.85Q46.48 14.84 47.64 14.17L47.64 14.17L47.64 14.17Q48.79 13.50 48.79 12.29L48.79 12.29L48.79 12.29Q48.79 11.76 48.48 11.44L48.48 11.44L48.48 11.44Q48.16 11.12 47.64 11.12L47.64 11.12ZM57.34 10.43L57.34 10.43Q58.10 10.43 58.67 10.82L58.67 10.82L58.67 10.82Q59.25 11.20 59.56 11.89L59.56 11.89L59.56 11.89Q59.88 12.59 59.88 13.51L59.88 13.51L59.88 13.51Q59.88 15.06 59.03 16.37L59.03 16.37L59.03 16.37Q58.18 17.67 56.74 18.42L56.74 18.42L56.74 18.42Q55.30 19.18 53.58 19.18L53.58 19.18L53.58 19.18Q53.14 19.18 52.84 19.08L52.84 19.08L52.84 19.08Q52.53 18.98 52.31 18.63L52.31 18.63L52.31 18.63Q52.09 18.28 52.09 17.57L52.09 17.57L52.09 17.57Q52.09 16.55 52.52 14.21L52.52 14.21L52.52 14.21Q52.95 11.87 53.59 9.09L53.59 9.09L53.02 8.48L53.02 8.48Q53.28 8.26 53.67 8.13L53.67 8.13L53.67 8.13Q54.05 7.99 54.38 7.99L54.38 7.99L54.38 7.99Q54.71 7.99 54.85 8.16L54.85 8.16L54.85 8.16Q54.99 8.32 54.99 8.71L54.99 8.71L54.99 8.71Q54.99 8.92 54.90 9.36L54.90 9.36L54.90 9.36Q54.81 9.80 54.72 10.15L54.72 10.15L54.72 10.15Q54.63 10.50 54.59 10.68L54.59 10.68L54.59 10.68Q54.29 11.73 54.11 12.60L54.11 12.60L54.25 12.67L54.25 12.67Q54.81 11.59 55.61 11.01L55.61 11.01L55.61 11.01Q56.41 10.43 57.34 10.43L57.34 10.43ZM53.20 18.41L53.20 18.41Q54.67 18.37 55.87 17.73L55.87 17.73L55.87 17.73Q57.06 17.09 57.74 16.02L57.74 16.02L57.74 16.02Q58.42 14.95 58.42 13.64L58.42 13.64L58.42 13.64Q58.42 12.60 58.00 12.03L58.00 12.03L58.00 12.03Q57.58 11.47 56.81 11.47L56.81 11.47L56.81 11.47Q55.89 11.47 55.06 12.35L55.06 12.35L55.06 12.35Q54.22 13.23 53.71 14.82L53.71 14.82L53.71 14.82Q53.20 16.41 53.20 18.41L53.20 18.41ZM64.71 19.18L64.71 19.18Q63.45 19.18 62.65 18.82L62.65 18.82L62.65 18.82Q61.85 18.47 61.85 17.82L61.85 17.82L61.85 17.82Q61.85 17.57 62.02 17.35L62.02 17.35L62.02 17.35Q62.19 17.14 62.47 17.00L62.47 17.00L62.47 17.00Q62.80 17.70 63.39 18.07L63.39 18.07L63.39 18.07Q63.97 18.44 64.64 18.44L64.64 18.44L64.64 18.44Q65.79 18.44 66.43 18.02L66.43 18.02L66.43 18.02Q67.07 17.60 67.07 16.80L67.07 16.80L67.07 16.80Q67.07 16.32 66.60 16.04L66.60 16.04L66.60 16.04Q66.12 15.75 65.14 15.41L65.14 15.41L65.14 15.41Q64.25 15.09 63.70 14.83L63.70 14.83L63.70 14.83Q63.15 14.57 62.77 14.13L62.77 14.13L62.77 14.13Q62.38 13.68 62.38 13.01L62.38 13.01L62.38 13.01Q62.38 12.29 62.89 11.70L62.89 11.70L62.89 11.70Q63.39 11.12 64.33 10.77L64.33 10.77L64.33 10.77Q65.27 10.43 66.49 10.43L66.49 10.43L66.49 10.43Q67.52 10.43 68.21 10.73L68.21 10.73L68.21 10.73Q68.89 11.03 68.89 11.51L68.89 11.51L68.89 11.51Q68.89 11.98 68.59 12.23L68.59 12.23L68.59 12.23Q68.28 12.47 67.76 12.47L67.76 12.47L67.76 12.47Q66.72 12.47 66.37 11.19L66.37 11.19L66.37 11.19Q65.10 11.33 64.39 11.79L64.39 11.79L64.39 11.79Q63.67 12.25 63.67 12.87L63.67 12.87L63.67 12.87Q63.67 13.17 63.92 13.41L63.92 13.41L63.92 13.41Q64.16 13.64 64.52 13.79L64.52 13.79L64.52 13.79Q64.88 13.94 65.56 14.20L65.56 14.20L65.56 14.20Q66.43 14.49 67.00 14.76L67.00 14.76L67.00 14.76Q67.56 15.04 67.96 15.48L67.96 15.48L67.96 15.48Q68.35 15.93 68.35 16.59L68.35 16.59L68.35 16.59Q68.35 17.28 67.94 17.87L67.94 17.87L67.94 17.87Q67.54 18.47 66.72 18.82L66.72 18.82L66.72 18.82Q65.90 19.18 64.71 19.18L64.71 19.18ZM73.28 9.13L73.28 9.13Q72.88 9.13 72.65 8.94L72.65 8.94L72.65 8.94Q72.42 8.75 72.42 8.43L72.42 8.43L72.42 8.43Q72.42 8.06 72.72 7.78L72.72 7.78L72.72 7.78Q73.01 7.49 73.51 7.49L73.51 7.49L73.51 7.49Q73.92 7.49 74.14 7.69L74.14 7.69L74.14 7.69Q74.37 7.88 74.37 8.19L74.37 8.19L74.37 8.19Q74.37 8.58 74.07 8.86L74.07 8.86L74.07 8.86Q73.77 9.13 73.28 9.13L73.28 9.13ZM71.93 19.18L71.93 19.18Q71.55 19.18 71.36 18.99L71.36 18.99L71.36 18.99Q71.16 18.80 71.16 18.37L71.16 18.37L71.16 18.37Q71.16 17.78 71.44 16.26L71.44 16.26L71.44 16.26Q71.71 14.74 72.44 11.48L72.44 11.48L71.86 10.91L71.86 10.91Q72.13 10.68 72.49 10.56L72.49 10.56L72.49 10.56Q72.86 10.43 73.15 10.43L73.15 10.43L73.15 10.43Q73.53 10.43 73.69 10.58L73.69 10.58L73.69 10.58Q73.85 10.74 73.85 11.13L73.85 11.13L73.85 11.13Q73.85 11.20 73.61 12.15L73.61 12.15L73.61 12.15Q73.15 14.01 72.83 15.60L72.83 15.60L72.83 15.60Q72.52 17.19 72.52 18.27L72.52 18.27L72.52 18.27Q72.52 18.70 72.72 18.87L72.72 18.87L72.72 18.87Q72.37 19.18 71.93 19.18L71.93 19.18ZM80.96 11.34L80.96 11.34Q81.52 11.34 81.52 11.84L81.52 11.84L81.52 11.84Q81.52 12.19 81.30 12.43L81.30 12.43L81.30 12.43Q80.91 12.32 80.09 12.32L80.09 12.32L80.09 12.32Q79.95 12.32 79.65 12.35L79.65 12.35L79.65 12.35Q79.10 14.15 78.81 15.50L78.81 15.50L78.81 15.50Q78.51 16.84 78.53 18.16L78.53 18.16L78.89 18.77L78.89 18.77Q78.68 18.97 78.42 19.08L78.42 19.08L78.42 19.08Q78.16 19.18 77.92 19.18L77.92 19.18L77.92 19.18Q77.57 19.18 77.36 18.96L77.36 18.96L77.36 18.96Q77.15 18.73 77.15 18.13L77.15 18.13L77.15 18.13Q77.15 17.44 77.33 16.61L77.33 16.61L77.33 16.61Q77.50 15.78 77.87 14.29L77.87 14.29L77.87 14.29Q78.18 13.12 78.30 12.56L78.30 12.56L78.30 12.56Q77.66 12.64 77.31 12.64L77.31 12.64L77.31 12.64Q76.73 12.64 76.73 12.15L76.73 12.15L76.73 12.15Q76.73 11.79 76.96 11.54L76.96 11.54L76.96 11.54Q77.35 11.65 78.22 11.65L78.22 11.65L78.22 11.65Q78.40 11.65 78.48 11.63L78.48 11.63L78.48 11.63Q78.58 10.99 78.58 10.64L78.58 10.64L78.58 10.64Q78.58 10.28 78.46 9.49L78.46 9.49L78.46 9.49Q78.62 9.30 78.95 9.18L78.95 9.18L78.95 9.18Q79.27 9.06 79.58 9.06L79.58 9.06L79.58 9.06Q79.93 9.06 80.09 9.23L80.09 9.23L80.09 9.23Q80.26 9.39 80.26 9.77L80.26 9.77L80.26 9.77Q80.26 10.23 79.93 11.44L79.93 11.44L79.93 11.44Q80.51 11.34 80.96 11.34L80.96 11.34ZM89.63 12.42L89.63 12.42Q89.63 13.86 88.14 14.67L88.14 14.67L88.14 14.67Q86.66 15.48 83.89 15.57L83.89 15.57L83.89 15.88L83.89 15.88Q83.89 17.04 84.33 17.70L84.33 17.70L84.33 17.70Q84.77 18.37 85.54 18.37L85.54 18.37L85.54 18.37Q86.49 18.37 87.10 17.78L87.10 17.78L87.10 17.78Q87.71 17.19 87.77 16.21L87.77 16.21L87.77 16.21Q88.76 16.21 88.76 16.97L88.76 16.97L88.76 16.97Q88.76 17.53 88.33 18.04L88.33 18.04L88.33 18.04Q87.89 18.55 87.13 18.87L87.13 18.87L87.13 18.87Q86.37 19.18 85.44 19.18L85.44 19.18L85.44 19.18Q84.01 19.18 83.22 18.28L83.22 18.28L83.22 18.28Q82.42 17.37 82.42 15.78L82.42 15.78L82.42 15.78Q82.42 14.27 83.06 13.04L83.06 13.04L83.06 13.04Q83.71 11.82 84.84 11.12L84.84 11.12L84.84 11.12Q85.97 10.43 87.37 10.43L87.37 10.43L87.37 10.43Q88.44 10.43 89.03 10.96L89.03 10.96L89.03 10.96Q89.63 11.48 89.63 12.42L89.63 12.42ZM87.19 11.12L87.19 11.12Q86.42 11.12 85.74 11.60L85.74 11.60L85.74 11.60Q85.06 12.08 84.59 12.94L84.59 12.94L84.59 12.94Q84.13 13.79 83.96 14.85L83.96 14.85L83.96 14.85Q86.03 14.84 87.19 14.17L87.19 14.17L87.19 14.17Q88.34 13.50 88.34 12.29L88.34 12.29L88.34 12.29Q88.34 11.76 88.03 11.44L88.03 11.44L88.03 11.44Q87.71 11.12 87.19 11.12L87.19 11.12ZM92.92 15.44L92.92 15.44Q92.67 15.44 92.58 15.31L92.58 15.31L92.58 15.31Q92.48 15.18 92.48 14.92L92.48 14.92L92.48 14.92Q92.48 14.55 92.63 13.72L92.63 13.72L92.63 13.72Q92.78 12.89 92.82 12.70L92.82 12.70L92.82 12.70Q93.03 11.59 93.16 10.81L93.16 10.81L93.16 10.81Q93.28 10.02 93.28 9.51L93.28 9.51L93.28 9.51Q93.28 8.69 93.03 8.37L93.03 8.37L93.03 8.37Q93.46 7.98 94.16 7.98L94.16 7.98L94.16 7.98Q94.65 7.98 94.89 8.29L94.89 8.29L94.89 8.29Q95.12 8.60 95.12 9.13L95.12 9.13L95.12 9.13Q95.12 9.74 94.54 11.89L94.54 11.89L94.54 11.89Q93.97 14.04 93.53 15.20L93.53 15.20L93.53 15.20Q93.41 15.32 93.23 15.38L93.23 15.38L93.23 15.38Q93.06 15.44 92.92 15.44L92.92 15.44ZM92.32 19.18L92.32 19.18Q91.95 19.18 91.70 18.94L91.70 18.94L91.70 18.94Q91.45 18.69 91.45 18.34L91.45 18.34L91.45 18.34Q91.45 17.92 91.73 17.62L91.73 17.62L91.73 17.62Q92.01 17.32 92.46 17.32L92.46 17.32L92.46 17.32Q92.83 17.32 93.08 17.56L93.08 17.56L93.08 17.56Q93.32 17.79 93.32 18.16L93.32 18.16L93.32 18.16Q93.32 18.56 93.03 18.87L93.03 18.87L93.03 18.87Q92.74 19.18 92.32 19.18L92.32 19.18Z"></path></g><!----><!----></svg>