<svg data-v-423bf9ae="" xmlns="http://www.w3.org/2000/svg" viewBox="0 0 595 104" class="iconLeft"><!----><!----><!----><g data-v-423bf9ae="" id="e23eca72-f8b9-4a73-a310-1caf10888122" fill="black" transform="matrix(4.559270569581267,0,0,4.559270569581267,121.0785513374314,3.5089538901309965)"><path d="M5.81 14.35L8.01 14.35L9.97 4.58L8.05 4.58L6.72 11.23L6.64 11.23L6.05 9.28L4.47 4.58L2.27 4.58L0.31 14.35L2.23 14.35L3.56 7.70L3.64 7.70L4.23 9.65ZM13.34 14.52C14.60 14.52 15.57 14.07 16.48 12.87L15.27 11.91C14.62 12.74 14.13 12.94 13.48 12.94C12.52 12.94 12.18 12.46 12.18 11.76C12.18 11.69 12.18 11.61 12.21 11.44C15.50 11.34 16.86 10.39 16.86 8.88C16.86 7.28 15.33 6.83 14.22 6.83C11.79 6.83 10.23 9.00 10.23 11.35C10.23 13.30 11.26 14.52 13.34 14.52ZM14.11 8.33C14.46 8.33 14.95 8.44 14.95 9.07C14.95 9.66 14.52 10.07 12.42 10.19L12.47 9.87C12.64 8.92 13.29 8.33 14.11 8.33ZM18.30 14.35L20.38 14.35L21.66 11.58L22.61 9.46L22.69 9.46L22.88 11.90L23.09 14.35L25.14 14.35L28.50 7.00L26.57 7.00L25.31 10.02L24.44 12.25L24.36 12.25L24.21 9.66L24.01 7.00L22.19 7.00L20.82 10.02L19.91 12.15L19.82 12.15L19.78 9.66L19.68 7.00L17.74 7.00ZM31.01 14.52C33.11 14.52 34.22 13.26 34.22 11.83C34.22 10.68 33.52 10.04 32.26 9.87L31.51 9.77C31.00 9.70 30.83 9.45 30.83 9.17C30.83 8.72 31.23 8.40 31.89 8.40C32.54 8.40 33.12 8.69 33.47 9.14L34.71 7.99C34.06 7.21 33.11 6.83 31.98 6.83C29.90 6.83 28.92 8.08 28.92 9.46C28.92 10.64 29.62 11.27 30.88 11.44L31.63 11.54C32.14 11.61 32.31 11.86 32.31 12.14C32.31 12.56 31.96 12.95 31.05 12.95C30.23 12.95 29.69 12.63 29.29 12.08L28.06 13.23C28.70 14.08 29.78 14.52 31.01 14.52ZM42.69 9.77L41.45 12.52L41.37 12.52L41.15 9.77L40.87 7.00L38.92 7.00L39.96 14.77L39.56 15.58L38.21 15.58L37.88 17.15L38.98 17.15C40.38 17.15 41.01 16.62 41.58 15.54L46.09 7.00L44.00 7.00ZM48.69 14.52C50.88 14.52 52.49 12.56 52.49 9.90C52.49 7.97 51.35 6.83 49.56 6.83C47.38 6.83 45.77 8.79 45.77 11.45C45.77 13.38 46.90 14.52 48.69 14.52ZM48.76 12.94C48.08 12.94 47.71 12.47 47.71 11.77C47.71 11.59 47.74 11.42 47.75 11.34L48.02 10.02C48.23 8.97 48.75 8.41 49.49 8.41C50.18 8.41 50.54 8.88 50.54 9.58C50.54 9.76 50.51 9.93 50.50 10.01L50.23 11.33C50.02 12.38 49.50 12.94 48.76 12.94ZM54.52 7.00L53.61 11.55C53.54 11.93 53.48 12.25 53.48 12.61C53.48 13.82 54.11 14.52 55.22 14.52C56.34 14.52 57.04 13.79 57.58 12.64L57.67 12.64L57.62 12.85C57.61 12.92 57.58 13.12 57.58 13.27C57.58 13.96 58.11 14.35 58.81 14.35L60.12 14.35L60.42 12.78L59.60 12.78L60.76 7.00L58.80 7.00L58.04 10.78C57.93 11.34 57.69 11.82 57.37 12.21C57.05 12.60 56.67 12.88 56.20 12.88C55.72 12.88 55.51 12.59 55.51 12.11C55.51 11.90 55.55 11.63 55.61 11.37L56.48 7.00ZM68.31 14.35L72.13 7.00L70.04 7.00L68.74 9.77L67.51 12.60L67.41 12.60L67.20 9.77L66.96 7.00L65.02 7.00L65.93 14.35ZM74.76 14.52C76.94 14.52 78.55 12.56 78.55 9.90C78.55 7.97 77.42 6.83 75.63 6.83C73.44 6.83 71.83 8.79 71.83 11.45C71.83 13.38 72.97 14.52 74.76 14.52ZM74.83 12.94C74.14 12.94 73.78 12.47 73.78 11.77C73.78 11.59 73.81 11.42 73.82 11.34L74.09 10.02C74.30 8.97 74.82 8.41 75.56 8.41C76.24 8.41 76.61 8.88 76.61 9.58C76.61 9.76 76.58 9.93 76.57 10.01L76.30 11.33C76.09 12.38 75.57 12.94 74.83 12.94ZM82.70 14.35L83.01 12.78L81.66 12.78L82.50 8.57L83.99 8.57L84.31 7.00L82.82 7.00L83.22 5.01L81.40 5.01L81.14 6.26C81.05 6.76 80.92 7.00 80.32 7.00L79.83 7.00L79.52 8.57L80.56 8.57L79.80 12.36C79.76 12.57 79.74 12.82 79.74 12.96C79.74 13.89 80.33 14.35 81.47 14.35ZM87.32 14.52C88.58 14.52 89.54 14.07 90.45 12.87L89.25 11.91C88.59 12.74 88.10 12.94 87.46 12.94C86.49 12.94 86.16 12.46 86.16 11.76C86.16 11.69 86.16 11.61 86.18 11.44C89.47 11.34 90.83 10.39 90.83 8.88C90.83 7.28 89.31 6.83 88.20 6.83C85.76 6.83 84.21 9.00 84.21 11.35C84.21 13.30 85.23 14.52 87.32 14.52ZM88.09 8.33C88.44 8.33 88.93 8.44 88.93 9.07C88.93 9.66 88.49 10.07 86.39 10.19L86.45 9.87C86.62 8.92 87.26 8.33 88.09 8.33ZM98.31 14.35L98.62 12.78L97.79 12.78L99.55 3.99L97.59 3.99L96.74 8.27L96.67 8.27C96.57 7.48 95.86 6.83 94.84 6.83C92.96 6.83 91.42 8.85 91.42 11.97C91.42 13.44 92.01 14.52 93.38 14.52C94.53 14.52 95.20 13.83 95.77 12.64L95.86 12.64L95.82 12.85C95.80 12.92 95.77 13.12 95.77 13.27C95.77 13.96 96.31 14.35 97.01 14.35ZM94.35 12.91C93.77 12.91 93.42 12.52 93.42 11.86C93.42 11.63 93.46 11.26 93.51 11.06L93.70 10.08C93.93 8.97 94.44 8.44 95.31 8.44C96.12 8.44 96.61 8.92 96.46 9.66L96.24 10.78C96.12 11.33 95.87 11.86 95.56 12.24C95.27 12.60 94.85 12.91 94.35 12.91ZM101.79 11.27L103.21 7.29L103.74 4.58L101.61 4.58L101.08 7.29L100.93 11.27ZM100.72 14.52C101.56 14.52 102.00 14.10 102.13 13.45C102.21 13.05 102.21 12.95 102.21 12.87C102.21 12.40 101.92 12.05 101.14 12.05C100.30 12.05 99.85 12.47 99.72 13.12C99.64 13.52 99.64 13.62 99.64 13.71C99.64 14.17 99.93 14.52 100.72 14.52Z"></path></g><!----><g data-v-423bf9ae="" id="b7dc5235-597a-4092-a714-328ad521b65f" transform="matrix(1.071866946750217,0,0,1.071866946750217,-1.4033487450707014,-1.859052561179837)" stroke="none" fill="black"><path d="M90.553 30.603H49.866l15.51-26.119a1.629 1.629 0 1 0-2.991-1.293L46.574 29.818l-8.997-18.057a1.628 1.628 0 1 0-2.915 1.452l8.664 17.39H9.447a7.257 7.257 0 0 0-7.257 7.259v53.554a7.258 7.258 0 0 0 7.257 7.259h81.105a7.258 7.258 0 0 0 7.258-7.259V37.861a7.257 7.257 0 0 0-7.257-7.258zm-8.901 7.958h7.899a1.622 1.622 0 0 1 0 3.245h-7.899a1.623 1.623 0 0 1 0-3.245zM58.873 63.792h.06l.587.108a10.82 10.82 0 0 1-.106 1.369c-.186 2.454-.809 4.716-1.756 6.613-1.722 3.451-4.51 5.694-7.657 5.694-4.798 0-8.762-5.214-9.384-11.973 0 0 3.788-.629 6.05-1.521 0 0 4.099-1.368 9.104-4.973.024-.019.05-.036.075-.055 0 0 .09.13.217.35.435.744 1.365 2.964-.395 3.979l3.205.409zm-14.95 12.705c1.73 1.728 3.823 2.739 6.077 2.739 2.202 0 4.251-.966 5.958-2.621l-1.26 2.621c.422-.695 2.009-.882 3.869-.836-.296 1.784-2.395 3.281-5.288 3.937L50 87.665l-3.279-5.327c-2.382-.54-4.223-1.652-4.965-3.024 1.922.167 3.551.52 3.973 1.211l-1.806-4.028zM71.367 90.4c-.682-5.569-4.594-10.137-9.805-11.779 2.432.272 4.564.69 4.564.69-4.853-2.666-4.728-12.242-4.728-12.242.849-18.545-11.39-17.575-11.39-17.575l-.008.028-.009-.029s-12.239-.97-11.391 17.575c0 0 .125 9.576-4.728 12.242 0 0 1.306-.088 3.053-.12-4.538 2.026-7.812 6.369-8.325 11.524H12.303a4.334 4.334 0 0 1-4.335-4.333V42.895a4.334 4.334 0 0 1 4.335-4.334h57.443a4.334 4.334 0 0 1 4.333 4.334v43.488h.002a4.335 4.335 0 0 1-2.714 4.017zm7.584-20.189a2.157 2.157 0 0 1 0-4.312 2.156 2.156 0 0 1 0 4.312zm6.65 0a2.157 2.157 0 0 1 0-4.312 2.156 2.156 0 0 1 0 4.312zm.002-10.573a6.12 6.12 0 0 1-6.122-6.121v-.002a6.12 6.12 0 0 1 6.122-6.121 6.12 6.12 0 0 1 6.12 6.121v.002a6.121 6.121 0 0 1-6.12 6.121zm6.648 10.573a2.157 2.157 0 1 1 .003-4.311 2.157 2.157 0 0 1-.003 4.311z"></path><path d="M21.16 51.525c1.42 0 2.604-1.898 2.866-3.453.001-.016.073-1.378-.918-1.303 0 0-3.443.683-3.941-.834 0 0-.743.617-.898 1.961.197 1.583 1.416 3.629 2.891 3.629zm2.683-4.07h-.002v-.007l.002.007z"></path><path d="M31.353 41.672H10.964c-.771 0-1.396.625-1.396 1.396v15.561c0 .771.625 1.396 1.396 1.396h20.389c.771 0 1.396-.625 1.396-1.396V43.068a1.395 1.395 0 0 0-1.396-1.396zM21.16 44.098a3.337 3.337 0 0 1 3.337 3.336c0 1.843-1.494 4.613-3.337 4.613s-3.337-2.77-3.337-4.613a3.336 3.336 0 0 1 3.337-3.336zm2.059 13.501h-4.121c-2.21 0-4.002.12-4.002-2.09a4.001 4.001 0 0 1 3.633-3.984c.016.729 1.097 1.318 2.429 1.318 1.332 0 2.413-.589 2.429-1.318a4.002 4.002 0 0 1 3.633 3.984c.001 2.21-1.79 2.09-4.001 2.09zM51.178 47.455l-.002-.007v.007z"></path></g><!----></svg>